<?xml version="1.0" encoding="UTF-8" standalone="no"?>
<!DOCTYPE svg  PUBLIC '-//W3C//DTD SVG 1.1//EN'  'http://www.w3.org/Graphics/SVG/1.1/DTD/svg11.dtd'>
<svg viewBox="5200 4000 19000 10000 " width="6.4cm" xmlns="http://www.w3.org/2000/svg" version="1.1" height="2.6cm">
 <title>SVG Picture created as grideye_usb.first_pass-brd.svg date 2016/04/15 21:25:47</title>
 <desc>Picture generated by PCBNEW</desc>
 <g stroke-width="0" fill="#840000">
  <polyline points="7500 12891 6820 12891 6820 12211 7500 12211 7500 12891" fill-rule="evenodd"/>
 </g>
 <g stroke-linejoin="round" fill-opacity="0" stroke="#840000" stroke-linecap="round" stroke-width="680">
  <path d="m7160 11551"/>
  <path d="m8160 12551"/>
  <path d="m8160 11551"/>
  <path d="m9160 12551"/>
  <path d="m9160 11551"/>
 </g>
 <g stroke-width="0" fill="#840000">
  <circle cy="12902" cx="25861" r="688.98"/>
 </g>
 <g stroke-width="0" fill="#840000">
  <circle cy="4901.6" cx="25861" r="688.98"/>
 </g>
 <g stroke-width="0" fill="#840000">
  <circle cy="4901.6" cx="3361" r="688.98"/>
 </g>
 <g stroke-width="0" fill="#840000">
  <circle cy="12902" cx="3361" r="688.98"/>
 </g>
 <g stroke-linejoin="round" fill-opacity="0" stroke="#840000" stroke-linecap="round" stroke-width="374.02">
  <path d="m4176 7257v119"/>
  <path d="m4176 9226v118"/>
 </g>
 <g stroke-linejoin="round" fill-opacity="0" stroke="#840000" stroke-linecap="round" stroke-width="393.7">
  <path d="m3004 6923h217"/>
  <path d="m3004 9679h217"/>
 </g>
 <g stroke-width="0" fill="#C2C2C2">
  <circle cy="6301.6" cx="4161" r="135"/>
 </g>
 <g stroke-width="0" fill="#C2C2C2">
  <circle cy="5201.6" cx="5061" r="135"/>
 </g>
 <g stroke-width="0" fill="#C2C2C2">
  <circle cy="5201.6" cx="7961" r="135"/>
 </g>
 <g stroke-width="0" fill="#C2C2C2">
  <circle cy="5201.6" cx="9861" r="135"/>
 </g>
 <g stroke-width="0" fill="#C2C2C2">
  <circle cy="5201.6" cx="11861" r="135"/>
 </g>
 <g stroke-width="0" fill="#C2C2C2">
  <circle cy="5201.6" cx="13861" r="135"/>
 </g>
 <g stroke-width="0" fill="#C2C2C2">
  <circle cy="5201.6" cx="15761" r="135"/>
 </g>
 <g stroke-width="0" fill="#C2C2C2">
  <circle cy="5201.6" cx="17761" r="135"/>
 </g>
 <g stroke-width="0" fill="#C2C2C2">
  <circle cy="5201.6" cx="19761" r="135"/>
 </g>
 <g stroke-width="0" fill="#C2C2C2">
  <circle cy="9301.6" cx="9261" r="135"/>
 </g>
 <g stroke-width="0" fill="#C2C2C2">
  <circle cy="9301.6" cx="7161" r="135"/>
 </g>
 <g stroke-width="0" fill="#C2C2C2">
  <circle cy="7501.6" cx="7061" r="135"/>
 </g>
 <g stroke-width="0" fill="#C2C2C2">
  <circle cy="7501.6" cx="5761" r="135"/>
 </g>
 <g stroke-width="0" fill="#C2C2C2">
  <circle cy="12602" cx="6361" r="135"/>
 </g>
 <g stroke-width="0" fill="#C2C2C2">
  <circle cy="12602" cx="4761" r="135"/>
 </g>
 <g stroke-width="0" fill="#C2C2C2">
  <circle cy="11702" cx="3761" r="135"/>
 </g>
 <g stroke-width="0" fill="#C2C2C2">
  <circle cy="10502" cx="3761" r="135"/>
 </g>
 <g stroke-width="0" fill="#C2C2C2">
  <circle cy="8557.1" cx="3605.4" r="135"/>
 </g>
 <g stroke-width="0" fill="#C2C2C2">
  <circle cy="5201.6" cx="22161" r="135"/>
 </g>
 <g stroke-width="0" fill="#C2C2C2">
  <circle cy="5201.6" cx="23861" r="135"/>
 </g>
 <g stroke-width="0" fill="#C2C2C2">
  <circle cy="7401.6" cx="25761" r="135"/>
 </g>
 <g stroke-width="0" fill="#C2C2C2">
  <circle cy="12502" cx="11861" r="135"/>
 </g>
 <g stroke-width="0" fill="#C2C2C2">
  <circle cy="12502" cx="14261" r="135"/>
 </g>
 <g stroke-width="0" fill="#C2C2C2">
  <circle cy="12502" cx="15861" r="135"/>
 </g>
 <g stroke-width="0" fill="#C2C2C2">
  <circle cy="12502" cx="17661" r="135"/>
 </g>
 <g stroke-width="0" fill="#C2C2C2">
  <circle cy="11702" cx="24461" r="135"/>
 </g>
 <g stroke-width="0" fill="#C2C2C2">
  <circle cy="12502" cx="23261" r="135"/>
 </g>
 <g stroke-width="0" fill="#C2C2C2">
  <circle cy="12502" cx="21461" r="135"/>
 </g>
 <g stroke-width="0" fill="#C2C2C2">
  <circle cy="12502" cx="19461" r="135"/>
 </g>
 <g stroke-width="0" fill="#C2C2C2">
  <circle cy="9501.6" cx="18261" r="135"/>
 </g>
 <g stroke-width="0" fill="#C2C2C2">
  <circle cy="10502" cx="16261" r="135"/>
 </g>
 <g stroke-width="0" fill="#C2C2C2">
  <circle cy="9201.6" cx="26452" r="135"/>
 </g>
 <g stroke-width="0" fill="#C2C2C2">
  <circle cy="11161" cx="2632.6" r="135"/>
 </g>
 <g stroke-width="0" fill="#C2C2C2">
  <circle cy="9192.9" cx="2632.6" r="135"/>
 </g>
 <g stroke-width="0" fill="#C2C2C2">
  <circle cy="7421.3" cx="2632.6" r="135"/>
 </g>
 <g stroke-width="0" fill="#C2C2C2">
  <circle cy="4271.6" cx="16806" r="135"/>
 </g>
 <g stroke-width="0" fill="#C2C2C2">
  <circle cy="4271.6" cx="14837" r="135"/>
 </g>
 <g stroke-width="0" fill="#C2C2C2">
  <circle cy="4271.6" cx="12869" r="135"/>
 </g>
 <g stroke-width="0" fill="#C2C2C2">
  <circle cy="4271.6" cx="12869" r="135"/>
 </g>
 <g stroke-width="0" fill="#C2C2C2">
  <circle cy="4271.6" cx="10900" r="135"/>
 </g>
 <g stroke-width="0" fill="#C2C2C2">
  <circle cy="4271.6" cx="8931.9" r="135"/>
 </g>
 <g stroke-width="0" fill="#C2C2C2">
  <circle cy="4271.6" cx="6963.4" r="135"/>
 </g>
 <g stroke-width="0" fill="#C2C2C2">
  <circle cy="4271.6" cx="4994.8" r="135"/>
 </g>
 <g stroke-width="0" fill="#C2C2C2">
  <circle cy="4271.6" cx="18774" r="135"/>
 </g>
 <g stroke-width="0" fill="#C2C2C2">
  <circle cy="4271.6" cx="20743" r="135"/>
 </g>
 <g stroke-width="0" fill="#C2C2C2">
  <circle cy="4271.6" cx="22711" r="135"/>
 </g>
 <g stroke-width="0" fill="#C2C2C2">
  <circle cy="4271.6" cx="24680" r="135"/>
 </g>
 <g stroke-width="0" fill="#C2C2C2">
  <circle cy="7224.4" cx="26452" r="135"/>
 </g>
 <g stroke-width="0" fill="#C2C2C2">
  <circle cy="10965" cx="26452" r="135"/>
 </g>
 <g stroke-width="0" fill="#C2C2C2">
  <circle cy="13524" cx="24680" r="135"/>
 </g>
 <g stroke-width="0" fill="#C2C2C2">
  <circle cy="13524" cx="22711" r="135"/>
 </g>
 <g stroke-width="0" fill="#C2C2C2">
  <circle cy="13524" cx="20743" r="135"/>
 </g>
 <g stroke-width="0" fill="#C2C2C2">
  <circle cy="13524" cx="18774" r="135"/>
 </g>
 <g stroke-width="0" fill="#C2C2C2">
  <circle cy="13524" cx="16806" r="135"/>
 </g>
 <g stroke-width="0" fill="#C2C2C2">
  <circle cy="13524" cx="14837" r="135"/>
 </g>
 <g stroke-width="0" fill="#C2C2C2">
  <circle cy="13524" cx="12869" r="135"/>
 </g>
 <g stroke-width="0" fill="#C2C2C2">
  <circle cy="13524" cx="10900" r="135"/>
 </g>
 <g stroke-width="0" fill="#C2C2C2">
  <circle cy="13524" cx="8931.9" r="135"/>
 </g>
 <g stroke-width="0" fill="#C2C2C2">
  <circle cy="13524" cx="6963.4" r="135"/>
 </g>
 <g stroke-width="0" fill="#C2C2C2">
  <circle cy="13524" cx="4994.8" r="135"/>
 </g>
 <g stroke-width="0" fill="#C2C2C2">
  <circle cy="10852" cx="15911" r="135"/>
 </g>
 <g stroke-width="0" fill="#C2C2C2">
  <circle cy="11152" cx="12311" r="135"/>
 </g>
 <g stroke-width="0" fill="#C2C2C2">
  <circle cy="6851.6" cx="7811" r="135"/>
 </g>
 <g stroke-width="0" fill="#C2C2C2">
  <circle cy="9151.6" cx="11211" r="135"/>
 </g>
 <g stroke-width="0" fill="#C2C2C2">
  <circle cy="6851.6" cx="15061" r="135"/>
 </g>
 <g stroke-width="0" fill="#C2C2C2">
  <circle cy="9001.6" cx="15911" r="135"/>
 </g>
 <g stroke-width="0" fill="#C2C2C2">
  <circle cy="9901.6" cx="25811" r="135"/>
 </g>
 <g stroke-width="0" fill="#C2C2C2">
  <circle cy="8051.6" cx="15911" r="135"/>
 </g>
 <g stroke-width="0" fill="#C2C2C2">
  <circle cy="9401.6" cx="25811" r="135"/>
 </g>
 <g stroke-width="0" fill="#C2C2C2">
  <circle cy="7651.6" cx="10961" r="135"/>
 </g>
 <g stroke-width="0" fill="#C2C2C2">
  <circle cy="8901.6" cx="25811" r="135"/>
 </g>
 <g stroke-width="0" fill="#C2C2C2">
  <circle cy="7101.6" cx="15911" r="135"/>
 </g>
 <g stroke-width="0" fill="#C2C2C2">
  <circle cy="8151.6" cx="11511" r="135"/>
 </g>
 <g stroke-linejoin="round" fill-opacity="0" stroke="#008400" stroke-linecap="round" stroke-width="60">
  <path d="m7960 5201h-2900"/>
  <path d="m9860 5201h-1900"/>
  <path d="m13860 5201h-2e3"/>
  <path d="m17760 5201h-2e3"/>
  <path d="m22160 5201h-2400"/>
  <path d="m5760 7501h1300"/>
  <path d="m9580 12981l480-480"/>
  <path d="m10060 12501h1800"/>
  <path d="m6360 12601l380 380"/>
  <path d="m6740 12981h2840"/>
  <path d="m4760 12601h1600"/>
  <path d="m3760 10501v1200"/>
  <path d="m23860 5201h-1700"/>
  <path d="m15860 12501h-1600"/>
  <path d="m17660 12501h-1800"/>
  <path d="m21460 12501h1800"/>
  <path d="m19460 12501h2e3"/>
  <path d="m26451 8996v205"/>
  <path d="m2632 9192v1969"/>
  <path d="m2632 5629v1792"/>
  <path d="m3360 4901l-728 728"/>
  <path d="m12868 4271h1969"/>
  <path d="m10900 4271h1968"/>
  <path d="m8931 4271h1969"/>
  <path d="m6963 4271h1968"/>
  <path d="m20742 4271h-1968"/>
  <path d="m24679 4271h-1968"/>
  <path d="m26451 8996v-1772"/>
  <path d="m25860 12736l591-591"/>
  <path d="m26451 12145v-1181"/>
  <path d="m25860 12901v-165"/>
  <path d="m24679 13523h559"/>
  <path d="m25238 13523l622-622"/>
  <path d="m20742 13523h1969"/>
  <path d="m16805 13523h1969"/>
  <path d="m12868 13523h1969"/>
  <path d="m8931 13523h1969"/>
  <path d="m4994 13523h1969"/>
  <path d="m15910 10851h-3300"/>
  <path d="m12610 10851l-300 300"/>
  <path d="m11210 9151v-2300"/>
  <path d="m7810 6851h3400"/>
  <path d="m11210 6851h3850"/>
  <path d="m7160 11551v-850"/>
  <path d="m7160 10701l650-650"/>
  <path d="m7810 10051v-3200"/>
  <path d="m17611 9141l-140-140"/>
  <path d="m17471 9001h-1561"/>
  <path d="m25810 9901l-759-760"/>
  <path d="m25051 9141h-7440"/>
  <path d="m17661 9021l-970-970"/>
  <path d="m16691 8051h-781"/>
  <path d="m25810 9401l-380-380"/>
  <path d="m25430 9021h-7769"/>
  <path d="m8160 11551h50"/>
  <path d="m8210 11551l2750-2750"/>
  <path d="m10960 8801v-1150"/>
  <path d="m25810 8901h-8100"/>
  <path d="m17710 8901l-1800-1800"/>
  <path d="m15910 7101h-3350"/>
  <path d="m12560 7101l-1050 1050"/>
  <path d="m7160 12551v-400"/>
  <path d="m7160 12151l170-170"/>
  <path d="m7330 11981h4e3"/>
  <path d="m11330 11981l180-180"/>
  <path d="m11510 11801v-3650"/>
 </g>
 <g stroke-linejoin="round" fill-rule="evenodd" stroke="#008400" stroke-linecap="round" stroke-width="100" fill="#008400">
  <polyline points="24921 5087 25064 5432 25328 5697 25673 5840 25810 5840 25810 8516 25734 8516 25593 8574 25546 8621 17826 8621 16296 7090 16296 7025 16237 6883 16129 6775 15987 6716 15834 6716 15693 6774 15646 6821 15446 6821 15446 6775 15387 6633 15279 6525 15137 6466 14984 6466 14843 6524 14796 6571 8075 6571 8029 6525 7887 6466 7734 6466 7593 6524 7484 6633 7426 6774 7425 6927 7484 7069 7530 7116 7530 9935 6963 10503 6902 10594 6890 10653 6880 10701 6880 11031 6743 11122 6615 11314 6570 11540 6570 11563 6615 11788 6738 11972 6728 11974 6643 12028 6586 12112 6566 12211 6566 12851 4300 12851 4300 12715 4157 12370 3893 12106 3548 11962 3510 11962 3510 10020 3548 9995 3645 9850 3679 9679 3645 9508 3548 9363 3510 9338 3510 9216 3739 9216 3739 9354 3772 9521 3867 9663 4008 9757 4176 9791 4343 9757 4485 9663 4579 9521 4613 9354 4613 9216 4579 9049 4485 8907 4343 8812 4176 8779 4008 8812 3867 8907 3772 9049 3739 9216 3510 9216 3510 7264 3534 7248 3739 7248 3739 7385 3772 7552 3867 7694 4008 7789 4176 7822 4343 7789 4485 7694 4579 7552 4613 7385 4613 7248 4579 7080 4485 6939 4343 6844 4176 6811 4008 6844 3867 6939 3772 7080 3739 7248 3534 7248 3548 7239 3645 7094 3679 6923 3645 6752 3548 6607 3510 6582 3510 5840 3546 5840 3892 5698 4156 5434 4299 5089 4299 4951 24921 4951 24921 5087"/>
  <polyline points="15692 7427 15834 7486 15900 7486 16185 7771 16175 7771 16129 7725 15987 7666 15834 7666 15693 7724 15584 7833 15526 7974 15525 8127 15584 8269 15692 8377 15834 8436 15987 8436 16128 8378 16175 8331 16575 8331 16965 8721 16175 8721 16129 8675 15987 8616 15834 8616 15693 8674 15584 8783 15526 8924 15525 9077 15584 9219 15692 9327 15834 9386 15987 9386 16128 9328 16175 9281 17355 9281 17413 9339 17504 9400 17611 9421 24935 9421 25425 9912 25425 9977 25484 10119 25592 10227 25734 10286 25810 10286 25810 11962 25675 11962 25329 12105 25065 12368 24922 12713 24922 12851 9664 12851 9706 12788 9750 12563 9750 12540 9706 12314 9670 12261 11330 12261 11438 12240 11528 12179 11708 11999 11769 11908 11790 11801 11790 11227 11925 11227 11984 11369 12092 11477 12234 11536 12387 11536 12528 11478 12637 11369 12695 11228 12695 11162 12726 11131 15646 11131 15692 11177 15834 11236 15987 11236 16128 11178 16237 11069 16295 10928 16296 10775 16237 10633 16129 10525 15987 10466 15834 10466 15693 10524 15646 10571 12610 10571 12503 10592 12413 10653 12300 10766 12234 10766 12093 10824 11984 10933 11926 11074 11925 11227 11790 11227 11790 8416 11837 8369 11895 8228 11895 8162 12676 7381 15646 7381 15692 7427"/>
  <polyline points="10884 9369 10992 9477 11134 9536 11230 9536 11230 11685 11215 11701 9729 11701 9733 11692 9686 11601 9210 11601 9210 11609 9110 11609 9110 11601 9103 11601 9103 11501 9110 11501 9110 11493 9210 11493 9210 11501 9686 11501 9733 11410 9636 11201 9466 11046 9302 10978 9210 11026 9210 10961 9196 10961 10856 9301 10884 9369"/>
  <polyline points="10930 7266 10884 7266 10743 7324 10634 7433 10576 7574 10575 7727 10634 7869 10680 7916 10680 8685 8374 10992 8160 10950 7935 10994 7743 11122 7660 11246 7578 11122 7440 11031 7440 10817 8008 10249 8069 10158 8090 10051 8090 7131 10930 7131 10930 7266"/>
  <polyline points="3173 6616 2996 6616 2879 6639 2779 6706 2713 6805 2689 6923 2713 7040 2779 7140 2879 7206 2996 7230 3173 7230 3173 9372 2996 9372 2879 9395 2779 9462 2713 9561 2689 9679 2713 9796 2779 9896 2879 9962 2996 9986 3173 9986 3173 13129 3177 13149 3188 13165 3205 13176 3223 13179 26160 13203 26180 13199 26196 13188 26207 13171 26210 13153 26210 3950 26969 3929 26990 3929 26990 14062 2290 14062 2290 3929 3173 3929 3173 6616"/>
  <polyline points="26990 4615 2290 4615 2290 3929 26990 3929 26990 4615"/>
 </g>
 <g stroke-width="0" fill="#fff">
  <circle cy="6301.6" cx="4161" r="65"/>
 </g>
 <g stroke-width="0" fill="#fff">
  <circle cy="5201.6" cx="5061" r="65"/>
 </g>
 <g stroke-width="0" fill="#fff">
  <circle cy="5201.6" cx="7961" r="65"/>
 </g>
 <g stroke-width="0" fill="#fff">
  <circle cy="5201.6" cx="9861" r="65"/>
 </g>
 <g stroke-width="0" fill="#fff">
  <circle cy="5201.6" cx="11861" r="65"/>
 </g>
 <g stroke-width="0" fill="#fff">
  <circle cy="5201.6" cx="13861" r="65"/>
 </g>
 <g stroke-width="0" fill="#fff">
  <circle cy="5201.6" cx="15761" r="65"/>
 </g>
 <g stroke-width="0" fill="#fff">
  <circle cy="5201.6" cx="17761" r="65"/>
 </g>
 <g stroke-width="0" fill="#fff">
  <circle cy="5201.6" cx="19761" r="65"/>
 </g>
 <g stroke-width="0" fill="#fff">
  <circle cy="9301.6" cx="9261" r="65"/>
 </g>
 <g stroke-width="0" fill="#fff">
  <circle cy="9301.6" cx="7161" r="65"/>
 </g>
 <g stroke-width="0" fill="#fff">
  <circle cy="7501.6" cx="7061" r="65"/>
 </g>
 <g stroke-width="0" fill="#fff">
  <circle cy="7501.6" cx="5761" r="65"/>
 </g>
 <g stroke-width="0" fill="#fff">
  <circle cy="12602" cx="6361" r="65"/>
 </g>
 <g stroke-width="0" fill="#fff">
  <circle cy="12602" cx="4761" r="65"/>
 </g>
 <g stroke-width="0" fill="#fff">
  <circle cy="11702" cx="3761" r="65"/>
 </g>
 <g stroke-width="0" fill="#fff">
  <circle cy="10502" cx="3761" r="65"/>
 </g>
 <g stroke-width="0" fill="#fff">
  <circle cy="8557.1" cx="3605.4" r="65"/>
 </g>
 <g stroke-width="0" fill="#fff">
  <circle cy="5201.6" cx="22161" r="65"/>
 </g>
 <g stroke-width="0" fill="#fff">
  <circle cy="5201.6" cx="23861" r="65"/>
 </g>
 <g stroke-width="0" fill="#fff">
  <circle cy="7401.6" cx="25761" r="65"/>
 </g>
 <g stroke-width="0" fill="#fff">
  <circle cy="12502" cx="11861" r="65"/>
 </g>
 <g stroke-width="0" fill="#fff">
  <circle cy="12502" cx="14261" r="65"/>
 </g>
 <g stroke-width="0" fill="#fff">
  <circle cy="12502" cx="15861" r="65"/>
 </g>
 <g stroke-width="0" fill="#fff">
  <circle cy="12502" cx="17661" r="65"/>
 </g>
 <g stroke-width="0" fill="#fff">
  <circle cy="11702" cx="24461" r="65"/>
 </g>
 <g stroke-width="0" fill="#fff">
  <circle cy="12502" cx="23261" r="65"/>
 </g>
 <g stroke-width="0" fill="#fff">
  <circle cy="12502" cx="21461" r="65"/>
 </g>
 <g stroke-width="0" fill="#fff">
  <circle cy="12502" cx="19461" r="65"/>
 </g>
 <g stroke-width="0" fill="#fff">
  <circle cy="9501.6" cx="18261" r="65"/>
 </g>
 <g stroke-width="0" fill="#fff">
  <circle cy="10502" cx="16261" r="65"/>
 </g>
 <g stroke-width="0" fill="#fff">
  <circle cy="9201.6" cx="26452" r="65"/>
 </g>
 <g stroke-width="0" fill="#fff">
  <circle cy="11161" cx="2632.6" r="65"/>
 </g>
 <g stroke-width="0" fill="#fff">
  <circle cy="9192.9" cx="2632.6" r="65"/>
 </g>
 <g stroke-width="0" fill="#fff">
  <circle cy="7421.3" cx="2632.6" r="65"/>
 </g>
 <g stroke-width="0" fill="#fff">
  <circle cy="4271.6" cx="16806" r="65"/>
 </g>
 <g stroke-width="0" fill="#fff">
  <circle cy="4271.6" cx="14837" r="65"/>
 </g>
 <g stroke-width="0" fill="#fff">
  <circle cy="4271.6" cx="12869" r="65"/>
 </g>
 <g stroke-width="0" fill="#fff">
  <circle cy="4271.6" cx="12869" r="65"/>
 </g>
 <g stroke-width="0" fill="#fff">
  <circle cy="4271.6" cx="10900" r="65"/>
 </g>
 <g stroke-width="0" fill="#fff">
  <circle cy="4271.6" cx="8931.9" r="65"/>
 </g>
 <g stroke-width="0" fill="#fff">
  <circle cy="4271.6" cx="6963.4" r="65"/>
 </g>
 <g stroke-width="0" fill="#fff">
  <circle cy="4271.6" cx="4994.8" r="65"/>
 </g>
 <g stroke-width="0" fill="#fff">
  <circle cy="4271.6" cx="18774" r="65"/>
 </g>
 <g stroke-width="0" fill="#fff">
  <circle cy="4271.6" cx="20743" r="65"/>
 </g>
 <g stroke-width="0" fill="#fff">
  <circle cy="4271.6" cx="22711" r="65"/>
 </g>
 <g stroke-width="0" fill="#fff">
  <circle cy="4271.6" cx="24680" r="65"/>
 </g>
 <g stroke-width="0" fill="#fff">
  <circle cy="7224.4" cx="26452" r="65"/>
 </g>
 <g stroke-width="0" fill="#fff">
  <circle cy="10965" cx="26452" r="65"/>
 </g>
 <g stroke-width="0" fill="#fff">
  <circle cy="13524" cx="24680" r="65"/>
 </g>
 <g stroke-width="0" fill="#fff">
  <circle cy="13524" cx="22711" r="65"/>
 </g>
 <g stroke-width="0" fill="#fff">
  <circle cy="13524" cx="20743" r="65"/>
 </g>
 <g stroke-width="0" fill="#fff">
  <circle cy="13524" cx="18774" r="65"/>
 </g>
 <g stroke-width="0" fill="#fff">
  <circle cy="13524" cx="16806" r="65"/>
 </g>
 <g stroke-width="0" fill="#fff">
  <circle cy="13524" cx="14837" r="65"/>
 </g>
 <g stroke-width="0" fill="#fff">
  <circle cy="13524" cx="12869" r="65"/>
 </g>
 <g stroke-width="0" fill="#fff">
  <circle cy="13524" cx="10900" r="65"/>
 </g>
 <g stroke-width="0" fill="#fff">
  <circle cy="13524" cx="8931.9" r="65"/>
 </g>
 <g stroke-width="0" fill="#fff">
  <circle cy="13524" cx="6963.4" r="65"/>
 </g>
 <g stroke-width="0" fill="#fff">
  <circle cy="13524" cx="4994.8" r="65"/>
 </g>
 <g stroke-width="0" fill="#fff">
  <circle cy="10852" cx="15911" r="65"/>
 </g>
 <g stroke-width="0" fill="#fff">
  <circle cy="11152" cx="12311" r="65"/>
 </g>
 <g stroke-width="0" fill="#fff">
  <circle cy="6851.6" cx="7811" r="65"/>
 </g>
 <g stroke-width="0" fill="#fff">
  <circle cy="9151.6" cx="11211" r="65"/>
 </g>
 <g stroke-width="0" fill="#fff">
  <circle cy="6851.6" cx="15061" r="65"/>
 </g>
 <g stroke-width="0" fill="#fff">
  <circle cy="9001.6" cx="15911" r="65"/>
 </g>
 <g stroke-width="0" fill="#fff">
  <circle cy="9901.6" cx="25811" r="65"/>
 </g>
 <g stroke-width="0" fill="#fff">
  <circle cy="8051.6" cx="15911" r="65"/>
 </g>
 <g stroke-width="0" fill="#fff">
  <circle cy="9401.6" cx="25811" r="65"/>
 </g>
 <g stroke-width="0" fill="#fff">
  <circle cy="7651.6" cx="10961" r="65"/>
 </g>
 <g stroke-width="0" fill="#fff">
  <circle cy="8901.6" cx="25811" r="65"/>
 </g>
 <g stroke-width="0" fill="#fff">
  <circle cy="7101.6" cx="15911" r="65"/>
 </g>
 <g stroke-width="0" fill="#fff">
  <circle cy="8151.6" cx="11511" r="65"/>
 </g>
 <g stroke-width="0" fill="#fff">
  <circle cy="12552" cx="7161" r="200"/>
 </g>
 <g stroke-width="0" fill="#fff">
  <circle cy="11552" cx="7161" r="200"/>
 </g>
 <g stroke-width="0" fill="#fff">
  <circle cy="12552" cx="8161" r="200"/>
 </g>
 <g stroke-width="0" fill="#fff">
  <circle cy="11552" cx="8161" r="200"/>
 </g>
 <g stroke-width="0" fill="#fff">
  <circle cy="12552" cx="9161" r="200"/>
 </g>
 <g stroke-width="0" fill="#fff">
  <circle cy="11552" cx="9161" r="200"/>
 </g>
 <g stroke-width="0" fill="#fff">
  <circle cy="12902" cx="25861" r="688.98"/>
 </g>
 <g stroke-width="0" fill="#fff">
  <circle cy="4901.6" cx="25861" r="688.98"/>
 </g>
 <g stroke-width="0" fill="#fff">
  <circle cy="4901.6" cx="3361" r="688.98"/>
 </g>
 <g stroke-width="0" fill="#fff">
  <circle cy="12902" cx="3361" r="688.98"/>
 </g>
 <g stroke-linejoin="round" fill-opacity="0" stroke="#fff" stroke-linecap="round" stroke-width="216.54">
  <path d="m4176 7257v119"/>
  <path d="m4176 9226v118"/>
 </g>
 <g stroke-linejoin="round" fill-opacity="0" stroke="#fff" stroke-linecap="round" stroke-width="196.85">
  <path d="m2985 6923h256"/>
  <path d="m2985 9679h256"/>
 </g>
 <g stroke-width="0" fill="#840000">
  <polyline points="7500 12891 6820 12891 6820 12211 7500 12211 7500 12891" fill-rule="evenodd"/>
 </g>
 <g stroke-linejoin="round" fill-opacity="0" stroke="#840000" stroke-linecap="round" stroke-width="680">
  <path d="m7160 11551"/>
  <path d="m8160 12551"/>
  <path d="m8160 11551"/>
  <path d="m9160 12551"/>
  <path d="m9160 11551"/>
 </g>
 <g stroke-width="0" fill="#840000">
  <polyline points="14729 9033 14729 9269 14118 9269 14118 9033 14729 9033" fill-rule="evenodd"/>
  <polyline points="14729 8533 14729 8769 14118 8769 14118 8533 14729 8533" fill-rule="evenodd"/>
  <polyline points="14729 8033 14729 8269 14118 8269 14118 8033 14729 8033" fill-rule="evenodd"/>
  <polyline points="14729 7533 14729 7769 14118 7769 14118 7533 14729 7533" fill-rule="evenodd"/>
  <polyline points="12603 7533 12603 7769 11992 7769 11992 7533 12603 7533" fill-rule="evenodd"/>
  <polyline points="12603 8033 12603 8269 11992 8269 11992 8033 12603 8033" fill-rule="evenodd"/>
  <polyline points="12603 8533 12603 8769 11992 8769 11992 8533 12603 8533" fill-rule="evenodd"/>
  <polyline points="12603 9033 12603 9269 11992 9269 11992 9033 12603 9033" fill-rule="evenodd"/>
  <circle cy="12902" cx="25861" r="688.98"/>
 </g>
 <g stroke-width="0" fill="#840000">
  <circle cy="4901.6" cx="25861" r="688.98"/>
 </g>
 <g stroke-width="0" fill="#840000">
  <circle cy="4901.6" cx="3361" r="688.98"/>
 </g>
 <g stroke-width="0" fill="#840000">
  <circle cy="12902" cx="3361" r="688.98"/>
 </g>
 <g fill-rule="evenodd" stroke-width="0" fill="#840000">
  <polyline points="18860 9701 19960 9701 19960 10401 18860 10401 18860 9701"/>
  <polyline points="18860 11101 19960 11101 19960 11801 18860 11801 18860 11101"/>
  <polyline points="17813 11753 17813 12049 17498 12049 17498 11753 17813 11753"/>
  <polyline points="17223 11753 17223 12049 16908 12049 16908 11753 17223 11753"/>
  <polyline points="21185 5e3 21481 5e3 21481 5314 21185 5314 21185 5e3"/>
  <polyline points="21185 5590 21481 5590 21481 5905 21185 5905 21185 5590"/>
  <polyline points="6126 6003 5831 6003 5831 5688 6126 5688 6126 6003"/>
  <polyline points="6126 5413 5831 5413 5831 5098 6126 5098 6126 5413"/>
  <polyline points="5733 12795 5437 12795 5437 12480 5733 12480 5733 12795"/>
  <polyline points="5733 12204 5437 12204 5437 11889 5733 11889 5733 12204"/>
  <polyline points="20595 11791 20890 11791 20890 12106 20595 12106 20595 11791"/>
  <polyline points="20595 12381 20890 12381 20890 12696 20595 12696 20595 12381"/>
  <polyline points="12908 10549 12908 10253 13223 10253 13223 10549 12908 10549"/>
  <polyline points="13498 10549 13498 10253 13813 10253 13813 10549 13498 10549"/>
  <polyline points="12908 11299 12908 11003 13223 11003 13223 11299 12908 11299"/>
  <polyline points="13498 11299 13498 11003 13813 11003 13813 11299 13498 11299"/>
  <polyline points="21368 7153 21368 7449 21053 7449 21053 7153 21368 7153"/>
  <polyline points="20777 7153 20777 7449 20462 7449 20462 7153 20777 7153"/>
  <polyline points="21359 8253 21359 8549 21044 8549 21044 8253 21359 8253"/>
  <polyline points="20768 8253 20768 8549 20453 8549 20453 8253 20768 8253"/>
  <polyline points="21363 9253 21363 9549 21048 9549 21048 9253 21363 9253"/>
  <polyline points="20773 9253 20773 9549 20458 9549 20458 9253 20773 9253"/>
  <polyline points="6322 8320 6499 8320 6499 8552 6322 8552 6322 8320"/>
  <polyline points="6322 9150 6499 9150 6499 9383 6322 9383 6322 9150"/>
  <polyline points="6499 8083 6322 8083 6322 7850 6499 7850 6499 8083"/>
  <polyline points="6499 7252 6322 7252 6322 7020 6499 7020 6499 7252"/>
  <polyline points="3910 7868 3910 7710 4441 7710 4441 7868 3910 7868"/>
  <polyline points="3910 8124 3910 7966 4441 7966 4441 8124 3910 8124"/>
  <polyline points="3910 8379 3910 8222 4441 8222 4441 8379 3910 8379"/>
  <polyline points="3910 8635 3910 8478 4441 8478 4441 8635 3910 8635"/>
  <polyline points="3910 8891 3910 8734 4441 8734 4441 8891 3910 8891"/>
 </g>
 <g stroke-linejoin="round" fill-opacity="0" stroke="#840000" stroke-linecap="round" stroke-width="374.02">
  <path d="m4176 7257v119"/>
  <path d="m4176 9226v118"/>
 </g>
 <g stroke-linejoin="round" fill-opacity="0" stroke="#840000" stroke-linecap="round" stroke-width="393.7">
  <path d="m3004 6923h217"/>
  <path d="m3004 9679h217"/>
 </g>
 <g fill-rule="evenodd" stroke-width="0" fill="#840000">
  <polyline points="15133 9812 15488 9812 15488 10009 15133 10009 15133 9812"/>
  <polyline points="15133 10403 15488 10403 15488 10600 15133 10600 15133 10403"/>
  <polyline points="7633 7207 7988 7207 7988 7404 7633 7404 7633 7207"/>
  <polyline points="7633 7798 7988 7798 7988 7995 7633 7995 7633 7798"/>
  <polyline points="8967 7978 8967 7624 9164 7624 9164 7978 8967 7978"/>
  <polyline points="9557 7978 9557 7624 9754 7624 9754 7978 9557 7978"/>
  <polyline points="8967 8728 8967 8374 9164 8374 9164 8728 8967 8728"/>
  <polyline points="9557 8728 9557 8374 9754 8374 9754 8728 9557 8728"/>
  <polyline points="17249 8824 17249 9178 17053 9178 17053 8824 17249 8824"/>
  <polyline points="16659 8824 16659 9178 16462 9178 16462 8824 16659 8824"/>
  <polyline points="17249 7874 17249 8228 17053 8228 17053 7874 17249 7874"/>
  <polyline points="16659 7874 16659 8228 16462 8228 16462 7874 16659 7874"/>
  <polyline points="17249 6924 17249 7278 17053 7278 17053 6924 17249 6924"/>
  <polyline points="16659 6924 16659 7278 16462 7278 16462 6924 16659 6924"/>
  <polyline points="19759 8224 19759 8578 19562 8578 19562 8224 19759 8224"/>
  <polyline points="19168 8224 19168 8578 18972 8578 18972 8224 19168 8224"/>
  <polyline points="16569 10205 16569 9949 16986 9949 16986 10205 16569 10205"/>
  <polyline points="16569 10579 16569 10323 16986 10323 16986 10579 16569 10579"/>
  <polyline points="16569 10953 16569 10697 16986 10697 16986 10953 16569 10953"/>
  <polyline points="17435 10953 17435 10697 17852 10697 17852 10953 17435 10953"/>
  <polyline points="17435 10205 17435 9949 17852 9949 17852 10205 17435 10205"/>
  <polyline points="23072 8039 22049 8039 22049 7763 23072 7763 23072 8039"/>
  <polyline points="23072 8539 22049 8539 22049 8263 23072 8263 23072 8539"/>
  <polyline points="23072 9039 22049 9039 22049 8763 23072 8763 23072 9039"/>
  <polyline points="23072 9539 22049 9539 22049 9263 23072 9263 23072 9539"/>
  <polyline points="23072 10039 22049 10039 22049 9763 23072 9763 23072 10039"/>
  <polyline points="25494 11224 24076 11224 24076 10909 25494 10909 25494 11224"/>
  <polyline points="23072 11224 22049 11224 22049 10909 23072 10909 23072 11224"/>
  <polyline points="23072 6893 22049 6893 22049 6578 23072 6578 23072 6893"/>
  <polyline points="25474 6893 24450 6893 24450 6578 25474 6578 25474 6893"/>
  <polyline points="25474 10039 24450 10039 24450 9763 25474 9763 25474 10039"/>
  <polyline points="25474 9539 24450 9539 24450 9263 25474 9263 25474 9539"/>
  <polyline points="25474 9039 24450 9039 24450 8763 25474 8763 25474 9039"/>
  <polyline points="25474 8539 24450 8539 24450 8263 25474 8263 25474 8539"/>
  <polyline points="25474 8039 24450 8039 24450 7763 25474 7763 25474 8039"/>
 </g>
 <g stroke-width="0" fill="#C2C2C2">
  <circle cy="6301.6" cx="4161" r="135"/>
 </g>
 <g stroke-width="0" fill="#C2C2C2">
  <circle cy="5201.6" cx="5061" r="135"/>
 </g>
 <g stroke-width="0" fill="#C2C2C2">
  <circle cy="5201.6" cx="7961" r="135"/>
 </g>
 <g stroke-width="0" fill="#C2C2C2">
  <circle cy="5201.6" cx="9861" r="135"/>
 </g>
 <g stroke-width="0" fill="#C2C2C2">
  <circle cy="5201.6" cx="11861" r="135"/>
 </g>
 <g stroke-width="0" fill="#C2C2C2">
  <circle cy="5201.6" cx="13861" r="135"/>
 </g>
 <g stroke-width="0" fill="#C2C2C2">
  <circle cy="5201.6" cx="15761" r="135"/>
 </g>
 <g stroke-width="0" fill="#C2C2C2">
  <circle cy="5201.6" cx="17761" r="135"/>
 </g>
 <g stroke-width="0" fill="#C2C2C2">
  <circle cy="5201.6" cx="19761" r="135"/>
 </g>
 <g stroke-width="0" fill="#C2C2C2">
  <circle cy="9301.6" cx="9261" r="135"/>
 </g>
 <g stroke-width="0" fill="#C2C2C2">
  <circle cy="9301.6" cx="7161" r="135"/>
 </g>
 <g stroke-width="0" fill="#C2C2C2">
  <circle cy="7501.6" cx="7061" r="135"/>
 </g>
 <g stroke-width="0" fill="#C2C2C2">
  <circle cy="7501.6" cx="5761" r="135"/>
 </g>
 <g stroke-width="0" fill="#C2C2C2">
  <circle cy="12602" cx="6361" r="135"/>
 </g>
 <g stroke-width="0" fill="#C2C2C2">
  <circle cy="12602" cx="4761" r="135"/>
 </g>
 <g stroke-width="0" fill="#C2C2C2">
  <circle cy="11702" cx="3761" r="135"/>
 </g>
 <g stroke-width="0" fill="#C2C2C2">
  <circle cy="10502" cx="3761" r="135"/>
 </g>
 <g stroke-width="0" fill="#C2C2C2">
  <circle cy="8557.1" cx="3605.4" r="135"/>
 </g>
 <g stroke-width="0" fill="#C2C2C2">
  <circle cy="5201.6" cx="22161" r="135"/>
 </g>
 <g stroke-width="0" fill="#C2C2C2">
  <circle cy="5201.6" cx="23861" r="135"/>
 </g>
 <g stroke-width="0" fill="#C2C2C2">
  <circle cy="7401.6" cx="25761" r="135"/>
 </g>
 <g stroke-width="0" fill="#C2C2C2">
  <circle cy="12502" cx="11861" r="135"/>
 </g>
 <g stroke-width="0" fill="#C2C2C2">
  <circle cy="12502" cx="14261" r="135"/>
 </g>
 <g stroke-width="0" fill="#C2C2C2">
  <circle cy="12502" cx="15861" r="135"/>
 </g>
 <g stroke-width="0" fill="#C2C2C2">
  <circle cy="12502" cx="17661" r="135"/>
 </g>
 <g stroke-width="0" fill="#C2C2C2">
  <circle cy="11702" cx="24461" r="135"/>
 </g>
 <g stroke-width="0" fill="#C2C2C2">
  <circle cy="12502" cx="23261" r="135"/>
 </g>
 <g stroke-width="0" fill="#C2C2C2">
  <circle cy="12502" cx="21461" r="135"/>
 </g>
 <g stroke-width="0" fill="#C2C2C2">
  <circle cy="12502" cx="19461" r="135"/>
 </g>
 <g stroke-width="0" fill="#C2C2C2">
  <circle cy="9501.6" cx="18261" r="135"/>
 </g>
 <g stroke-width="0" fill="#C2C2C2">
  <circle cy="10502" cx="16261" r="135"/>
 </g>
 <g stroke-width="0" fill="#C2C2C2">
  <circle cy="9201.6" cx="26452" r="135"/>
 </g>
 <g stroke-width="0" fill="#C2C2C2">
  <circle cy="11161" cx="2632.6" r="135"/>
 </g>
 <g stroke-width="0" fill="#C2C2C2">
  <circle cy="9192.9" cx="2632.6" r="135"/>
 </g>
 <g stroke-width="0" fill="#C2C2C2">
  <circle cy="7421.3" cx="2632.6" r="135"/>
 </g>
 <g stroke-width="0" fill="#C2C2C2">
  <circle cy="4271.6" cx="16806" r="135"/>
 </g>
 <g stroke-width="0" fill="#C2C2C2">
  <circle cy="4271.6" cx="14837" r="135"/>
 </g>
 <g stroke-width="0" fill="#C2C2C2">
  <circle cy="4271.6" cx="12869" r="135"/>
 </g>
 <g stroke-width="0" fill="#C2C2C2">
  <circle cy="4271.6" cx="12869" r="135"/>
 </g>
 <g stroke-width="0" fill="#C2C2C2">
  <circle cy="4271.6" cx="10900" r="135"/>
 </g>
 <g stroke-width="0" fill="#C2C2C2">
  <circle cy="4271.6" cx="8931.9" r="135"/>
 </g>
 <g stroke-width="0" fill="#C2C2C2">
  <circle cy="4271.6" cx="6963.4" r="135"/>
 </g>
 <g stroke-width="0" fill="#C2C2C2">
  <circle cy="4271.6" cx="4994.8" r="135"/>
 </g>
 <g stroke-width="0" fill="#C2C2C2">
  <circle cy="4271.6" cx="18774" r="135"/>
 </g>
 <g stroke-width="0" fill="#C2C2C2">
  <circle cy="4271.6" cx="20743" r="135"/>
 </g>
 <g stroke-width="0" fill="#C2C2C2">
  <circle cy="4271.6" cx="22711" r="135"/>
 </g>
 <g stroke-width="0" fill="#C2C2C2">
  <circle cy="4271.6" cx="24680" r="135"/>
 </g>
 <g stroke-width="0" fill="#C2C2C2">
  <circle cy="7224.4" cx="26452" r="135"/>
 </g>
 <g stroke-width="0" fill="#C2C2C2">
  <circle cy="10965" cx="26452" r="135"/>
 </g>
 <g stroke-width="0" fill="#C2C2C2">
  <circle cy="13524" cx="24680" r="135"/>
 </g>
 <g stroke-width="0" fill="#C2C2C2">
  <circle cy="13524" cx="22711" r="135"/>
 </g>
 <g stroke-width="0" fill="#C2C2C2">
  <circle cy="13524" cx="20743" r="135"/>
 </g>
 <g stroke-width="0" fill="#C2C2C2">
  <circle cy="13524" cx="18774" r="135"/>
 </g>
 <g stroke-width="0" fill="#C2C2C2">
  <circle cy="13524" cx="16806" r="135"/>
 </g>
 <g stroke-width="0" fill="#C2C2C2">
  <circle cy="13524" cx="14837" r="135"/>
 </g>
 <g stroke-width="0" fill="#C2C2C2">
  <circle cy="13524" cx="12869" r="135"/>
 </g>
 <g stroke-width="0" fill="#C2C2C2">
  <circle cy="13524" cx="10900" r="135"/>
 </g>
 <g stroke-width="0" fill="#C2C2C2">
  <circle cy="13524" cx="8931.9" r="135"/>
 </g>
 <g stroke-width="0" fill="#C2C2C2">
  <circle cy="13524" cx="6963.4" r="135"/>
 </g>
 <g stroke-width="0" fill="#C2C2C2">
  <circle cy="13524" cx="4994.8" r="135"/>
 </g>
 <g stroke-width="0" fill="#C2C2C2">
  <circle cy="10852" cx="15911" r="135"/>
 </g>
 <g stroke-width="0" fill="#C2C2C2">
  <circle cy="11152" cx="12311" r="135"/>
 </g>
 <g stroke-width="0" fill="#C2C2C2">
  <circle cy="6851.6" cx="7811" r="135"/>
 </g>
 <g stroke-width="0" fill="#C2C2C2">
  <circle cy="9151.6" cx="11211" r="135"/>
 </g>
 <g stroke-width="0" fill="#C2C2C2">
  <circle cy="6851.6" cx="15061" r="135"/>
 </g>
 <g stroke-width="0" fill="#C2C2C2">
  <circle cy="9001.6" cx="15911" r="135"/>
 </g>
 <g stroke-width="0" fill="#C2C2C2">
  <circle cy="9901.6" cx="25811" r="135"/>
 </g>
 <g stroke-width="0" fill="#C2C2C2">
  <circle cy="8051.6" cx="15911" r="135"/>
 </g>
 <g stroke-width="0" fill="#C2C2C2">
  <circle cy="9401.6" cx="25811" r="135"/>
 </g>
 <g stroke-width="0" fill="#C2C2C2">
  <circle cy="7651.6" cx="10961" r="135"/>
 </g>
 <g stroke-width="0" fill="#C2C2C2">
  <circle cy="8901.6" cx="25811" r="135"/>
 </g>
 <g stroke-width="0" fill="#C2C2C2">
  <circle cy="7101.6" cx="15911" r="135"/>
 </g>
 <g stroke-width="0" fill="#C2C2C2">
  <circle cy="8151.6" cx="11511" r="135"/>
 </g>
 <g stroke-linejoin="round" fill-opacity="0" stroke="#840000" stroke-linecap="round" stroke-width="60">
  <path d="m15310 9851v-150"/>
  <path d="m17644 9551h-2184"/>
  <path d="m15460 9551l-150 150"/>
  <path d="m17644 10077v-526"/>
  <path d="m17644 9551v-550"/>
  <path d="m15310 9851h79"/>
  <path d="m22560 7901h-1350"/>
  <path d="m21210 7901h-1150"/>
  <path d="m21210 7301v208"/>
  <path d="m21210 7509v392"/>
  <path d="m20060 7901h-2416"/>
  <path d="m17644 8051v-150"/>
  <path d="m17644 7901v-533"/>
  <path d="m17644 9001v-950"/>
  <path d="m17151 9001h158"/>
  <path d="m17309 9001h335"/>
  <path d="m17151 8051h158"/>
  <path d="m17309 8051h335"/>
  <path d="m17644 7368l-267-267"/>
  <path d="m17377 7101h-226"/>
  <path d="m20660 9951h1850"/>
  <path d="m22510 9951l50-50"/>
  <path d="m20710 10001l-50-50"/>
  <path d="m20660 9951h-1150"/>
  <path d="m19510 9951l-100 100"/>
  <path d="m17644 10077h1741"/>
  <path d="m19385 10077l25-26"/>
  <path d="m5060 5201v200"/>
  <path d="m5060 5401l-900 900"/>
  <path d="m11860 5201h-2e3"/>
  <path d="m15760 5201h-1900"/>
  <path d="m19760 5201h-2e3"/>
  <path d="m7160 9301h2100"/>
  <path d="m6410 9266h716"/>
  <path d="m7126 9266l34 35"/>
  <path d="m6410 7136h-284"/>
  <path d="m6126 7136l-366 365"/>
  <path d="m3760 11701l900 900"/>
  <path d="m4660 12601h100"/>
  <path d="m3760 9501v1e3"/>
  <path d="m3605 9346l155 155"/>
  <path d="m4176 8557h-571"/>
  <path d="m23860 7201v-2e3"/>
  <path d="m24060 7401l-200-200"/>
  <path d="m24596 7401h-536"/>
  <path d="m24760 7301h-64"/>
  <path d="m24696 7301l-100 100"/>
  <path d="m24962 7503l-202-202"/>
  <path d="m24962 7901v-398"/>
  <path d="m24962 7403l2-2"/>
  <path d="m24964 7401h796"/>
  <path d="m24962 7901v-498"/>
  <path d="m24962 7901v-198"/>
  <path d="m24962 7703l-402-402"/>
  <path d="m14260 12501h-2400"/>
  <path d="m19460 12501h-1800"/>
  <path d="m23260 12501h400"/>
  <path d="m23660 12501l800-800"/>
  <path d="m19460 11911v590"/>
  <path d="m19410 11451v410"/>
  <path d="m19410 11861l50 50"/>
  <path d="m20615 9401h-2255"/>
  <path d="m18360 9401l-100 100"/>
  <path d="m16777 10451h-467"/>
  <path d="m16310 10451l-50 50"/>
  <path d="m4176 8557h740"/>
  <path d="m4916 8557l144 144"/>
  <path d="m17644 10825v1064"/>
  <path d="m17644 11889l12 12"/>
  <path d="m26451 10964v-1763"/>
  <path d="m26451 9201v-205"/>
  <path d="m20742 12539v984"/>
  <path d="m21333 5157v-886"/>
  <path d="m4994 4271h985"/>
  <path d="m5979 4271h984"/>
  <path d="m5979 5255v-984"/>
  <path d="m5585 13523h-591"/>
  <path d="m5585 12637v886"/>
  <path d="m2632 12539h366"/>
  <path d="m2998 12539l362 362"/>
  <path d="m2632 11161v1378"/>
  <path d="m2632 7421v1771"/>
  <path d="m14837 4271h1968"/>
  <path d="m8931 4271h1969"/>
  <path d="m10900 4271h7874"/>
  <path d="m4994 4271h3937"/>
  <path d="m3360 4724l453-453"/>
  <path d="m3813 4271h1181"/>
  <path d="m3360 4901v-177"/>
  <path d="m18774 4271h3937"/>
  <path d="m22711 4271h-1969"/>
  <path d="m22711 4271h1575"/>
  <path d="m25860 4665l-393-394"/>
  <path d="m25467 4271h-788"/>
  <path d="m25860 4901v-236"/>
  <path d="m26451 7224v-1732"/>
  <path d="m26451 5492l-591-591"/>
  <path d="m22711 13523h1968"/>
  <path d="m18774 13523h1968"/>
  <path d="m14837 13523h1968"/>
  <path d="m10900 13523h1968"/>
  <path d="m6963 13523h1968"/>
  <path d="m4140 13590l67-67"/>
  <path d="m4207 13523h787"/>
  <path d="m3360 12901l689 689"/>
  <path d="m4049 13590h91"/>
  <path d="m24813 13720h-20634"/>
  <path d="m4179 13720l-819-819"/>
  <path d="m24943 13590l-130 130"/>
  <path d="m25860 12901l-688 689"/>
  <path d="m25172 13590h-229"/>
  <path d="m26845 5137v6780"/>
  <path d="m26845 11917l-985 984"/>
  <path d="m26609 4901l236 236"/>
  <path d="m25860 4901h749"/>
  <path d="m24286 4271l59-59"/>
  <path d="m24345 4212h827"/>
  <path d="m25172 4212l688 689"/>
  <path d="m2472 8813v-3023"/>
  <path d="m2472 5790l888-889"/>
  <path d="m4176 8813h-1704"/>
  <path d="m16777 10077h-492"/>
  <path d="m16285 10077l-375 374"/>
  <path d="m15910 10451v400"/>
  <path d="m15910 10851h-500"/>
  <path d="m15410 10851l-100-100"/>
  <path d="m15310 10751v-250"/>
  <path d="m7810 6851v455"/>
  <path d="m12660 11151h-350"/>
  <path d="m15910 10851h841"/>
  <path d="m16751 10851l26-26"/>
  <path d="m12298 10788v350"/>
  <path d="m12298 11138l12 13"/>
  <path d="m5610 6851h2200"/>
  <path d="m11932 9151h-722"/>
  <path d="m12298 9151h-366"/>
  <path d="m5310 7151l300-300"/>
  <path d="m5310 7551v-400"/>
  <path d="m5060 7801l250-250"/>
  <path d="m4514 7801h546"/>
  <path d="m4176 7789h325"/>
  <path d="m4501 7789l13 12"/>
  <path d="m13065 10401h-767"/>
  <path d="m12310 10451h-12"/>
  <path d="m12310 10414v37"/>
  <path d="m12298 10401l12 13"/>
  <path d="m12298 9151v1300"/>
  <path d="m12298 10451v337"/>
  <path d="m12660 11151h405"/>
  <path d="m21201 8401h218"/>
  <path d="m21419 8401h1141"/>
  <path d="m20610 8401h-950"/>
  <path d="m21206 9401h217"/>
  <path d="m21423 9401h1137"/>
  <path d="m6410 8436h175"/>
  <path d="m8545 8267l285 284"/>
  <path d="m8830 8551h235"/>
  <path d="m6585 8436l169-169"/>
  <path d="m6754 8267h1791"/>
  <path d="m6410 8436h-148"/>
  <path d="m6262 8436l-198-198"/>
  <path d="m4637 8238l-63 63"/>
  <path d="m6064 8238h-1427"/>
  <path d="m4574 8301h-398"/>
  <path d="m6426 8451l-16-15"/>
  <path d="m6410 7966h175"/>
  <path d="m6585 7966l169 170"/>
  <path d="m6754 8136h976"/>
  <path d="m7730 8136l80-81"/>
  <path d="m7810 8055v-159"/>
  <path d="m4637 8107h1484"/>
  <path d="m6121 8107l141-141"/>
  <path d="m4176 8045h398"/>
  <path d="m4574 8045l63 62"/>
  <path d="m6262 7966h148"/>
  <path d="m9115 7951h-1250"/>
  <path d="m7865 7951l-55-55"/>
  <path d="m14423 9151v2150"/>
  <path d="m9810 11901h4013"/>
  <path d="m13823 11901l600-600"/>
  <path d="m9160 12551l650-650"/>
  <path d="m15810 9001h100"/>
  <path d="m15910 9001h650"/>
  <path d="m24962 9901h848"/>
  <path d="m15460 8651l350 350"/>
  <path d="m14423 8651h1037"/>
  <path d="m16560 8051h-650"/>
  <path d="m15910 8051h-1387"/>
  <path d="m24962 9401h848"/>
  <path d="m14523 8051l-100 100"/>
  <path d="m9656 7651h1304"/>
  <path d="m10960 7651h1338"/>
  <path d="m24962 8901h848"/>
  <path d="m16402 7101h-492"/>
  <path d="m16560 7101h-158"/>
  <path d="m11510 8151h788"/>
  <path d="m8660 12051v-1100"/>
  <path d="m8660 10951l2300-2300"/>
  <path d="m8160 12551l500-500"/>
  <path d="m12298 8651h-1338"/>
  <path d="m10960 8651h-1304"/>
 </g>
 <g stroke-linejoin="round" fill-rule="evenodd" stroke="#840000" stroke-linecap="round" stroke-width="100" fill="#840000">
  <polyline points="6064 8634 6088 8650 6139 8730 6223 8787 6322 8807 6499 8807 6592 8789 6677 8735 6715 8679 6783 8634 6870 8547 8429 8547 8632 8749 8718 8807 8722 8810 8727 8811 8729 8821 8784 8906 8868 8963 8967 8983 9164 8983 9256 8966 9341 8911 9360 8883 9375 8906 9458 8963 9557 8983 9754 8983 9847 8966 9901 8931 10285 8931 8463 10753 8402 10844 8392 10895 8380 10951 8380 10993 8160 10950 7935 10994 7743 11122 7660 11246 7578 11122 7386 10994 7160 10950 6935 10994 6743 11122 6615 11314 6570 11540 6570 11563 6615 11788 6738 11972 6728 11974 6643 12028 6586 12112 6566 12211 6566 12851 5976 12851 5987 12795 5987 12480 5970 12387 5944 12346 5944 12346 5983 12254 5983 12159 5920 12097 5635 12097 5635 12105 5535 12105 5535 12097 5250 12097 5187 12159 5187 12254 5225 12346 5226 12346 5202 12381 5182 12480 5182 12795 5193 12851 4300 12851 4300 12715 4157 12370 3893 12106 3548 11962 3510 11962 3510 11840 5187 11840 5187 11934 5250 11997 5535 11997 5535 11702 5635 11702 5635 11997 5920 11997 5983 11934 5983 11840 5944 11748 5874 11677 5782 11639 5697 11639 5635 11702 5535 11702 5472 11639 5388 11639 5296 11677 5225 11748 5187 11840 3510 11840 3510 10020 3548 9995 3645 9850 3679 9679 3645 9508 3548 9363 3510 9338 3510 9093 3762 9093 3763 9094 3739 9216 3739 9354 3772 9521 3867 9663 4008 9757 4176 9791 4343 9757 4485 9663 4579 9521 4608 9379 6072 9379 6072 9432 6110 9524 6180 9595 6272 9633 6304 9633 6366 9570 6366 9316 6455 9316 6455 9570 6517 9633 6549 9633 6641 9595 6711 9524 6749 9432 6749 9379 6687 9316 6455 9316 6366 9316 6134 9316 6072 9379 4608 9379 4613 9354 4613 9216 4590 9101 6072 9101 6072 9154 6134 9216 6366 9216 6366 8963 6455 8963 6455 9216 6687 9216 6749 9154 6749 9101 6711 9009 6641 8938 6549 8900 6517 8900 6455 8963 6366 8963 6304 8900 6272 8900 6180 8938 6110 9009 6072 9101 4590 9101 4588 9094 4619 9074 4676 8990 4696 8891 4696 8734 4688 8692 4691 8685 4691 8658 4680 8647 4679 8641 4633 8569 4681 8559 4743 8518 5948 8518 6064 8634"/>
  <polyline points="5596 4999 5576 5098 5576 5413 5594 5506 5620 5546 5619 5547 5581 5639 5581 5733 5643 5796 5929 5796 5929 5788 6029 5788 6029 5796 6314 5796 6376 5733 6376 5639 6338 5547 6338 5546 6361 5512 6381 5413 6381 5098 6364 5005 6329 4951 20940 4951 20930 5e3 20930 5314 20948 5407 20974 5448 20973 5448 20935 5540 20935 5635 20998 5698 21283 5698 21283 5690 21383 5690 21383 5698 21668 5698 21731 5635 21731 5540 21693 5448 21692 5448 21715 5414 21735 5314 21735 5e3 21726 4951 24921 4951 24921 5087 25064 5432 25328 5697 25673 5840 25810 5840 25810 8516 25734 8516 25724 8520 25724 8514 25661 8451 25012 8451 25012 8459 24912 8459 24912 8451 24263 8451 24200 8514 24200 8589 24225 8649 24215 8664 24195 8763 24195 9039 24213 9132 24225 9150 24215 9164 24195 9263 24195 9539 24213 9632 24225 9650 24215 9664 24195 9763 24195 10039 24213 10132 24268 10217 24351 10274 24450 10294 25474 10294 25567 10276 25623 10240 25734 10286 25810 10286 25810 11962 25675 11962 25329 12105 25065 12368 24922 12713 24922 12851 21087 12851 21125 12796 21145 12696 21145 12381 21127 12289 21101 12248 21102 12247 21140 12156 21140 12061 21078 11998 20792 11998 20792 12006 20692 12006 20692 11998 20407 11998 20345 12061 20345 12156 20383 12247 20383 12248 20360 12282 20340 12381 20340 12696 20357 12789 20397 12851 9664 12851 9706 12788 9750 12563 9750 12540 9720 12387 9926 12181 13823 12181 13931 12160 14021 12099 14107 12014 16658 12014 16658 12098 16696 12190 16766 12261 16858 12299 16953 12299 17015 12236 17015 11951 16720 11951 16658 12014 14107 12014 14417 11704 16658 11704 16658 11789 16720 11851 17015 11851 17015 11566 16953 11503 16858 11503 16766 11541 16696 11612 16658 11704 14417 11704 14621 11499 14662 11438 14682 11408 14703 11301 14703 9524 14729 9524 14821 9507 14906 9452 14963 9368 14984 9269 14984 9033 14966 8940 14960 8931 15345 8931 15550 9136 15584 9219 15636 9271 15460 9271 15353 9292 15351 9294 15263 9353 15113 9503 15068 9569 15041 9575 14956 9629 14899 9713 14878 9812 14878 10009 14896 10102 14951 10187 14978 10205 14956 10220 14899 10303 14878 10403 14878 10600 14896 10692 14951 10777 15034 10834 15048 10837 15052 10858 15113 10949 15213 11049 15303 11110 15321 11113 15410 11131 15646 11131 15692 11177 15834 11236 15987 11236 16128 11178 16175 11131 16386 11131 16470 11188 16569 11208 16986 11208 17079 11191 17164 11136 17211 11067 17252 11131 17336 11188 17364 11193 17364 11541 17272 11503 17178 11503 17115 11566 17115 11851 17123 11851 17123 11951 17115 11951 17115 12236 17178 12299 17272 12299 17364 12261 17365 12260 17399 12284 17498 12304 17813 12304 17906 12286 17991 12231 18048 12148 18068 12049 18068 11753 18051 11661 17996 11576 17978 11564 18610 11564 18610 11851 18649 11943 18719 12013 18811 12051 19298 12051 19360 11989 19360 11501 19460 11501 19460 11989 19523 12051 20010 12051 20102 12013 20172 11943 20210 11851 20210 11741 20345 11741 20345 11836 20407 11898 20692 11898 20692 11603 20792 11603 20792 11898 21078 11898 21140 11836 21140 11741 21102 11649 21032 11579 20940 11541 20855 11541 20792 11603 20692 11603 20630 11541 20545 11541 20453 11579 20383 11649 20345 11741 20210 11741 20210 11564 20148 11501 19460 11501 19360 11501 18673 11501 18610 11564 17978 11564 17924 11526 17924 11195 17945 11191 18030 11136 18087 11052 18087 11051 18610 11051 18610 11339 18673 11401 19360 11401 19360 10914 19460 10914 19460 11401 20148 11401 20210 11339 20210 11051 20172 10959 20122 10909 21794 10909 21794 11224 21811 11317 21866 11402 21950 11459 22049 11479 23072 11479 23165 11461 23250 11407 23307 11323 23327 11224 23327 10909 23821 10909 23821 11224 23839 11317 23894 11402 23977 11459 24076 11479 25494 11479 25586 11461 25671 11407 25728 11323 25748 11224 25748 10909 25731 10816 25676 10731 25593 10674 25494 10654 24076 10654 23984 10671 23899 10726 23841 10810 23821 10909 23327 10909 23310 10816 23255 10731 23171 10674 23072 10654 22049 10654 21956 10671 21871 10726 21814 10810 21794 10909 20122 10909 20102 10889 20010 10851 19523 10851 19460 10914 19360 10914 19298 10851 18811 10851 18719 10889 18649 10959 18610 11051 18087 11051 18107 10953 18107 10697 18090 10604 18035 10519 17951 10462 17897 10451 17945 10442 18030 10388 18051 10357 18606 10357 18606 10401 18623 10494 18678 10579 18761 10636 18860 10656 19960 10656 20053 10639 20138 10584 20195 10500 20215 10401 20215 10231 20560 10231 20603 10260 20710 10281 20818 10260 20861 10231 21887 10231 21950 10274 22049 10294 23072 10294 23165 10276 23250 10222 23307 10138 23327 10039 23327 9763 23310 9671 23298 9652 23307 9638 23327 9539 23327 9263 23310 9171 23298 9152 23307 9138 23327 9039 23327 8763 23310 8671 23298 8652 23307 8638 23327 8539 23327 8263 23310 8171 23298 8152 23307 8138 23327 8039 23327 8014 24200 8014 24200 8089 24226 8151 24200 8214 24200 8289 24263 8351 24912 8351 24912 7951 25012 7951 25012 8351 25661 8351 25724 8289 25724 8214 25698 8151 25724 8089 25724 8014 25661 7951 25012 7951 24912 7951 24263 7951 24200 8014 23327 8014 23327 7763 23318 7714 24200 7714 24200 7789 24263 7851 24912 7851 24912 7576 25012 7576 25012 7851 25661 7851 25724 7789 25724 7714 25686 7622 25615 7551 25524 7513 25075 7513 25012 7576 24912 7576 24850 7513 24401 7513 24309 7551 24238 7622 24200 7714 23318 7714 23310 7671 23255 7586 23171 7528 23072 7508 22049 7508 21956 7526 21871 7581 21843 7621 21553 7621 21603 7548 21623 7449 21623 7153 21605 7061 21551 6976 21467 6919 21368 6899 21053 6899 20960 6916 20920 6942 20919 6941 20827 6903 20732 6903 20670 6966 20670 7251 20678 7251 20678 7351 20670 7351 20670 7359 20570 7359 20570 7351 20275 7351 20212 7414 20212 7498 20251 7590 20281 7621 17924 7621 17924 7368 17902 7261 17902 7261 17842 7170 17775 7104 20212 7104 20212 7189 20275 7251 20570 7251 20570 6966 20507 6903 20413 6903 20321 6941 20251 7012 20212 7104 17775 7104 17575 6903 17490 6846 17487 6831 17432 6746 17349 6689 17249 6669 17053 6669 16960 6686 16875 6741 16856 6769 16842 6746 16758 6689 16659 6669 16462 6669 16369 6686 16284 6741 16230 6821 16175 6821 16129 6775 15987 6716 15834 6716 15693 6774 15584 6883 15526 7024 15525 7177 15584 7319 15692 7427 15834 7486 15987 7486 16128 7428 16175 7381 16231 7381 16279 7456 16363 7513 16462 7533 16659 7533 16752 7516 16837 7461 16855 7433 16870 7456 16953 7513 17053 7533 17249 7533 17342 7516 17364 7502 17364 7649 17349 7639 17249 7619 17053 7619 16960 7636 16875 7691 16856 7719 16842 7696 16758 7639 16659 7619 16462 7619 16369 7636 16284 7691 16230 7771 16175 7771 16129 7725 15987 7666 15834 7666 15693 7724 15646 7771 14979 7771 14979 7764 14916 7701 14473 7701 14473 7709 14373 7709 14373 7701 13931 7701 13868 7764 13868 7819 13904 7904 13884 7934 13863 8033 13863 8269 13881 8362 13906 8401 13884 8434 13863 8533 13863 8769 13881 8862 13906 8901 13884 8934 13863 9033 13863 9269 13881 9362 13936 9447 14019 9504 14118 9524 14143 9524 14143 11185 14063 11265 14063 11264 14001 11201 13706 11201 13706 11486 13768 11549 13780 11549 13708 11621 9810 11621 9707 11642 9686 11601 9210 11601 9210 11609 9110 11609 9110 11601 9103 11601 9103 11501 9110 11501 9110 11026 9210 11026 9210 11501 9686 11501 9733 11410 9636 11201 9466 11046 9302 10978 9210 11026 9110 11026 9026 10982 10825 9182 10825 9227 10884 9369 10992 9477 11134 9536 11287 9536 11428 9478 11475 9431 11799 9431 11810 9447 11893 9504 11992 9524 12018 9524 12018 10900 11984 10933 11926 11074 11925 11227 11984 11369 12092 11477 12234 11536 12387 11536 12528 11478 12575 11431 12696 11431 12725 11476 12809 11534 12908 11554 13223 11554 13315 11536 13356 11510 13357 11511 13449 11549 13543 11549 13606 11486 13606 11201 13598 11201 13598 11101 13606 11101 13606 10816 13566 10776 13606 10736 13606 10451 13706 10451 13706 10736 13746 10776 13706 10816 13706 11101 14001 11101 14063 11039 14063 10954 14025 10862 13955 10791 13918 10776 13955 10761 14025 10690 14063 10598 14063 10514 14001 10451 13706 10451 13606 10451 13598 10451 13598 10351 13606 10351 13606 10066 13706 10066 13706 10351 14001 10351 14063 10289 14063 10204 14025 10112 13955 10041 13863 10003 13768 10003 13706 10066 13606 10066 13543 10003 13449 10003 13357 10041 13356 10042 13322 10019 13223 9999 12908 9999 12815 10016 12730 10071 12696 10121 12578 10121 12578 9524 12603 9524 12695 9507 12780 9452 12837 9368 12858 9269 12858 9033 12840 8940 12815 8901 12837 8868 12858 8769 12858 8533 12840 8440 12815 8401 12837 8368 12858 8269 12858 8033 12840 7940 12815 7901 12837 7868 12858 7769 12858 7533 12848 7483 13868 7483 13868 7539 13931 7601 14373 7601 14373 7345 14473 7345 14473 7601 14916 7601 14979 7539 14979 7483 14941 7391 14870 7321 14778 7283 14536 7283 14473 7345 14373 7345 14311 7283 14069 7283 13977 7321 13906 7391 13868 7483 12848 7483 12840 7440 12785 7355 12702 7298 12603 7278 11992 7278 11900 7295 11815 7350 11800 7371 11225 7371 11179 7325 11037 7266 10884 7266 10743 7324 10696 7371 9764 7371 9754 7369 9557 7369 9465 7386 9380 7441 9361 7469 9346 7446 9263 7389 9164 7369 8967 7369 8874 7386 8789 7441 8732 7525 8712 7624 8712 7671 8203 7671 8170 7620 8143 7601 8165 7587 8222 7503 8243 7404 8243 7207 8225 7115 8170 7030 8157 7021 8195 6928 8195 6927 14675 6927 14734 7069 14842 7177 14984 7236 15137 7236 15278 7178 15387 7069 15445 6928 15446 6775 15387 6633 15332 6578 21794 6578 21794 6893 21811 6986 21866 7071 21950 7128 22049 7148 23072 7148 23165 7131 23250 7076 23307 6992 23327 6893 23327 6578 24195 6578 24195 6893 24213 6986 24268 7071 24351 7128 24450 7148 25474 7148 25567 7131 25652 7076 25709 6992 25729 6893 25729 6578 25711 6486 25657 6401 25573 6343 25474 6323 24450 6323 24358 6341 24273 6396 24215 6479 24195 6578 23327 6578 23310 6486 23255 6401 23171 6343 23072 6323 22049 6323 21956 6341 21871 6396 21814 6479 21794 6578 15332 6578 15279 6525 15137 6466 14984 6466 14843 6524 14734 6633 14676 6774 14675 6927 8195 6927 8196 6775 8137 6633 8029 6525 7887 6466 7734 6466 7593 6524 7546 6571 5610 6571 5503 6592 5413 6653 5113 6953 5052 7044 5040 7101 5030 7151 5030 7435 4945 7521 4607 7521 4588 7508 4613 7385 4613 7248 4579 7080 4485 6939 4343 6844 4176 6811 4008 6844 3867 6939 3772 7080 3739 7248 3739 7385 3763 7508 3732 7527 3675 7611 3655 7710 3655 7868 3665 7919 3655 7966 3655 8124 3665 8175 3655 8222 3655 8379 3663 8421 3660 8428 3660 8455 3671 8466 3672 8472 3695 8507 3660 8507 3660 8533 3510 8533 3510 7264 3548 7239 3645 7094 3679 6923 3645 6752 3548 6607 3510 6582 3510 5958 5581 5958 5581 6053 5619 6145 5689 6215 5781 6253 5866 6253 5929 6191 5929 5896 6029 5896 6029 6191 6091 6253 6176 6253 6268 6215 6338 6145 6376 6053 6376 5958 6314 5896 6029 5896 5929 5896 5643 5896 5581 5958 3510 5958 3510 5860 20935 5860 20935 5955 20973 6047 21044 6117 21136 6155 21220 6155 21283 6093 21283 5798 21383 5798 21383 6093 21445 6155 21530 6155 21622 6117 21693 6047 21731 5955 21731 5860 21668 5798 21383 5798 21283 5798 20998 5798 20935 5860 3510 5860 3510 5840 3546 5840 3892 5698 4156 5434 4299 5089 4299 4951 5629 4951 5596 4999"/>
  <polyline points="16381 10401 16413 10401 16470 10440 16524 10451 16476 10460 16412 10501 16381 10501 16319 10564 16319 10571 16190 10571 16190 10567 16369 10389 16381 10401"/>
  <polyline points="18722 8289 18784 8351 19021 8351 19021 8343 19119 8343 19119 8351 19128 8351 19128 8451 19119 8451 19119 8766 19182 8828 19218 8828 19310 8790 19366 8735 19379 8756 19463 8813 19562 8833 19759 8833 19852 8816 19937 8761 19991 8681 20241 8681 20270 8726 20354 8784 20453 8804 20768 8804 20861 8786 20906 8757 20944 8784 21044 8804 21359 8804 21451 8786 21536 8731 21571 8681 21810 8681 21794 8763 21794 9039 21809 9121 21575 9121 21546 9076 21462 9019 21363 8999 21048 8999 20956 9016 20915 9042 20914 9041 20822 9003 20728 9003 20665 9066 20665 9351 20673 9351 20673 9451 20665 9451 20665 9459 20565 9459 20565 9451 20270 9451 20208 9514 20208 9598 20238 9671 20210 9671 20198 9608 20143 9523 20060 9466 19960 9446 18860 9446 18768 9464 18683 9518 18626 9602 18606 9701 18606 9797 18051 9797 18035 9771 17951 9714 17924 9709 17924 9204 20208 9204 20208 9289 20270 9351 20565 9351 20565 9066 20503 9003 20408 9003 20316 9041 20246 9112 20208 9204 17924 9204 17924 8514 18722 8514 18722 8628 18760 8720 18830 8790 18922 8828 18958 8828 19021 8766 19021 8451 18784 8451 18722 8514 17924 8514 17924 8181 18722 8181 18722 8289"/>
  <polyline points="7378 7207 7378 7404 7396 7497 7451 7582 7478 7601 7456 7615 7399 7699 7378 7798 7378 7856 6870 7856 6783 7768 6714 7722 6682 7673 6598 7615 6499 7595 6322 7595 6229 7613 6144 7668 6087 7751 6087 7753 6064 7768 6005 7827 5430 7827 5508 7749 5569 7658 5590 7551 5590 7267 5609 7248 6072 7248 6072 7302 6110 7393 6180 7464 6272 7502 6304 7502 6366 7439 6366 7186 6455 7186 6455 7439 6517 7502 6549 7502 6641 7464 6711 7393 6749 7302 6749 7248 6687 7186 6455 7186 6366 7186 6134 7186 6072 7248 5609 7248 5726 7131 7394 7131 7378 7207"/>
  <polyline points="26990 14062 2290 14062 2290 6923 2689 6923 2713 7040 2779 7140 2879 7206 2996 7230 3173 7230 3173 9372 2996 9372 2879 9395 2779 9462 2713 9561 2689 9679 2713 9796 2779 9896 2879 9962 2996 9986 3173 9986 3173 13129 3177 13149 3188 13165 3205 13176 3223 13179 26160 13179 26180 13175 26196 13164 26207 13148 26210 13129 26210 4665 26207 4645 26195 4629 26179 4618 26160 4615 3223 4615 3203 4619 3187 4630 3176 4647 3173 4665 3173 6616 2996 6616 2879 6639 2779 6706 2713 6805 2689 6923 2290 6923 2290 3929 26990 3929 26990 14062"/>
 </g>
 <g stroke-width="0" fill="#fff">
  <circle cy="6301.6" cx="4161" r="65"/>
 </g>
 <g stroke-width="0" fill="#fff">
  <circle cy="5201.6" cx="5061" r="65"/>
 </g>
 <g stroke-width="0" fill="#fff">
  <circle cy="5201.6" cx="7961" r="65"/>
 </g>
 <g stroke-width="0" fill="#fff">
  <circle cy="5201.6" cx="9861" r="65"/>
 </g>
 <g stroke-width="0" fill="#fff">
  <circle cy="5201.6" cx="11861" r="65"/>
 </g>
 <g stroke-width="0" fill="#fff">
  <circle cy="5201.6" cx="13861" r="65"/>
 </g>
 <g stroke-width="0" fill="#fff">
  <circle cy="5201.6" cx="15761" r="65"/>
 </g>
 <g stroke-width="0" fill="#fff">
  <circle cy="5201.6" cx="17761" r="65"/>
 </g>
 <g stroke-width="0" fill="#fff">
  <circle cy="5201.6" cx="19761" r="65"/>
 </g>
 <g stroke-width="0" fill="#fff">
  <circle cy="9301.6" cx="9261" r="65"/>
 </g>
 <g stroke-width="0" fill="#fff">
  <circle cy="9301.6" cx="7161" r="65"/>
 </g>
 <g stroke-width="0" fill="#fff">
  <circle cy="7501.6" cx="7061" r="65"/>
 </g>
 <g stroke-width="0" fill="#fff">
  <circle cy="7501.6" cx="5761" r="65"/>
 </g>
 <g stroke-width="0" fill="#fff">
  <circle cy="12602" cx="6361" r="65"/>
 </g>
 <g stroke-width="0" fill="#fff">
  <circle cy="12602" cx="4761" r="65"/>
 </g>
 <g stroke-width="0" fill="#fff">
  <circle cy="11702" cx="3761" r="65"/>
 </g>
 <g stroke-width="0" fill="#fff">
  <circle cy="10502" cx="3761" r="65"/>
 </g>
 <g stroke-width="0" fill="#fff">
  <circle cy="8557.1" cx="3605.4" r="65"/>
 </g>
 <g stroke-width="0" fill="#fff">
  <circle cy="5201.6" cx="22161" r="65"/>
 </g>
 <g stroke-width="0" fill="#fff">
  <circle cy="5201.6" cx="23861" r="65"/>
 </g>
 <g stroke-width="0" fill="#fff">
  <circle cy="7401.6" cx="25761" r="65"/>
 </g>
 <g stroke-width="0" fill="#fff">
  <circle cy="12502" cx="11861" r="65"/>
 </g>
 <g stroke-width="0" fill="#fff">
  <circle cy="12502" cx="14261" r="65"/>
 </g>
 <g stroke-width="0" fill="#fff">
  <circle cy="12502" cx="15861" r="65"/>
 </g>
 <g stroke-width="0" fill="#fff">
  <circle cy="12502" cx="17661" r="65"/>
 </g>
 <g stroke-width="0" fill="#fff">
  <circle cy="11702" cx="24461" r="65"/>
 </g>
 <g stroke-width="0" fill="#fff">
  <circle cy="12502" cx="23261" r="65"/>
 </g>
 <g stroke-width="0" fill="#fff">
  <circle cy="12502" cx="21461" r="65"/>
 </g>
 <g stroke-width="0" fill="#fff">
  <circle cy="12502" cx="19461" r="65"/>
 </g>
 <g stroke-width="0" fill="#fff">
  <circle cy="9501.6" cx="18261" r="65"/>
 </g>
 <g stroke-width="0" fill="#fff">
  <circle cy="10502" cx="16261" r="65"/>
 </g>
 <g stroke-width="0" fill="#fff">
  <circle cy="9201.6" cx="26452" r="65"/>
 </g>
 <g stroke-width="0" fill="#fff">
  <circle cy="11161" cx="2632.6" r="65"/>
 </g>
 <g stroke-width="0" fill="#fff">
  <circle cy="9192.9" cx="2632.6" r="65"/>
 </g>
 <g stroke-width="0" fill="#fff">
  <circle cy="7421.3" cx="2632.6" r="65"/>
 </g>
 <g stroke-width="0" fill="#fff">
  <circle cy="4271.6" cx="16806" r="65"/>
 </g>
 <g stroke-width="0" fill="#fff">
  <circle cy="4271.6" cx="14837" r="65"/>
 </g>
 <g stroke-width="0" fill="#fff">
  <circle cy="4271.6" cx="12869" r="65"/>
 </g>
 <g stroke-width="0" fill="#fff">
  <circle cy="4271.6" cx="12869" r="65"/>
 </g>
 <g stroke-width="0" fill="#fff">
  <circle cy="4271.6" cx="10900" r="65"/>
 </g>
 <g stroke-width="0" fill="#fff">
  <circle cy="4271.6" cx="8931.9" r="65"/>
 </g>
 <g stroke-width="0" fill="#fff">
  <circle cy="4271.6" cx="6963.4" r="65"/>
 </g>
 <g stroke-width="0" fill="#fff">
  <circle cy="4271.6" cx="4994.8" r="65"/>
 </g>
 <g stroke-width="0" fill="#fff">
  <circle cy="4271.6" cx="18774" r="65"/>
 </g>
 <g stroke-width="0" fill="#fff">
  <circle cy="4271.6" cx="20743" r="65"/>
 </g>
 <g stroke-width="0" fill="#fff">
  <circle cy="4271.6" cx="22711" r="65"/>
 </g>
 <g stroke-width="0" fill="#fff">
  <circle cy="4271.6" cx="24680" r="65"/>
 </g>
 <g stroke-width="0" fill="#fff">
  <circle cy="7224.4" cx="26452" r="65"/>
 </g>
 <g stroke-width="0" fill="#fff">
  <circle cy="10965" cx="26452" r="65"/>
 </g>
 <g stroke-width="0" fill="#fff">
  <circle cy="13524" cx="24680" r="65"/>
 </g>
 <g stroke-width="0" fill="#fff">
  <circle cy="13524" cx="22711" r="65"/>
 </g>
 <g stroke-width="0" fill="#fff">
  <circle cy="13524" cx="20743" r="65"/>
 </g>
 <g stroke-width="0" fill="#fff">
  <circle cy="13524" cx="18774" r="65"/>
 </g>
 <g stroke-width="0" fill="#fff">
  <circle cy="13524" cx="16806" r="65"/>
 </g>
 <g stroke-width="0" fill="#fff">
  <circle cy="13524" cx="14837" r="65"/>
 </g>
 <g stroke-width="0" fill="#fff">
  <circle cy="13524" cx="12869" r="65"/>
 </g>
 <g stroke-width="0" fill="#fff">
  <circle cy="13524" cx="10900" r="65"/>
 </g>
 <g stroke-width="0" fill="#fff">
  <circle cy="13524" cx="8931.9" r="65"/>
 </g>
 <g stroke-width="0" fill="#fff">
  <circle cy="13524" cx="6963.4" r="65"/>
 </g>
 <g stroke-width="0" fill="#fff">
  <circle cy="13524" cx="4994.8" r="65"/>
 </g>
 <g stroke-width="0" fill="#fff">
  <circle cy="10852" cx="15911" r="65"/>
 </g>
 <g stroke-width="0" fill="#fff">
  <circle cy="11152" cx="12311" r="65"/>
 </g>
 <g stroke-width="0" fill="#fff">
  <circle cy="6851.6" cx="7811" r="65"/>
 </g>
 <g stroke-width="0" fill="#fff">
  <circle cy="9151.6" cx="11211" r="65"/>
 </g>
 <g stroke-width="0" fill="#fff">
  <circle cy="6851.6" cx="15061" r="65"/>
 </g>
 <g stroke-width="0" fill="#fff">
  <circle cy="9001.6" cx="15911" r="65"/>
 </g>
 <g stroke-width="0" fill="#fff">
  <circle cy="9901.6" cx="25811" r="65"/>
 </g>
 <g stroke-width="0" fill="#fff">
  <circle cy="8051.6" cx="15911" r="65"/>
 </g>
 <g stroke-width="0" fill="#fff">
  <circle cy="9401.6" cx="25811" r="65"/>
 </g>
 <g stroke-width="0" fill="#fff">
  <circle cy="7651.6" cx="10961" r="65"/>
 </g>
 <g stroke-width="0" fill="#fff">
  <circle cy="8901.6" cx="25811" r="65"/>
 </g>
 <g stroke-width="0" fill="#fff">
  <circle cy="7101.6" cx="15911" r="65"/>
 </g>
 <g stroke-width="0" fill="#fff">
  <circle cy="8151.6" cx="11511" r="65"/>
 </g>
 <g stroke-width="0" fill="#fff">
  <circle cy="12552" cx="7161" r="200"/>
 </g>
 <g stroke-width="0" fill="#fff">
  <circle cy="11552" cx="7161" r="200"/>
 </g>
 <g stroke-width="0" fill="#fff">
  <circle cy="12552" cx="8161" r="200"/>
 </g>
 <g stroke-width="0" fill="#fff">
  <circle cy="11552" cx="8161" r="200"/>
 </g>
 <g stroke-width="0" fill="#fff">
  <circle cy="12552" cx="9161" r="200"/>
 </g>
 <g stroke-width="0" fill="#fff">
  <circle cy="11552" cx="9161" r="200"/>
 </g>
 <g stroke-width="0" fill="#fff">
  <circle cy="12902" cx="25861" r="688.98"/>
 </g>
 <g stroke-width="0" fill="#fff">
  <circle cy="4901.6" cx="25861" r="688.98"/>
 </g>
 <g stroke-width="0" fill="#fff">
  <circle cy="4901.6" cx="3361" r="688.98"/>
 </g>
 <g stroke-width="0" fill="#fff">
  <circle cy="12902" cx="3361" r="688.98"/>
 </g>
 <g stroke-linejoin="round" fill-opacity="0" stroke="#fff" stroke-linecap="round" stroke-width="216.54">
  <path d="m4176 7257v119"/>
  <path d="m4176 9226v118"/>
 </g>
 <g stroke-linejoin="round" fill-opacity="0" stroke="#fff" stroke-linecap="round" stroke-width="196.85">
  <path d="m2985 6923h256"/>
  <path d="m2985 9679h256"/>
 </g>
 <g stroke-width="0" fill="#840000">
  <polyline points="7579 12970 6742 12970 6742 12132 7579 12132 7579 12970" fill-rule="evenodd"/>
 </g>
 <g stroke-linejoin="round" fill-opacity="0" stroke="#840000" stroke-linecap="round" stroke-width="837.48">
  <path d="m7160 11551"/>
  <path d="m8160 12551"/>
  <path d="m8160 11551"/>
  <path d="m9160 12551"/>
  <path d="m9160 11551"/>
 </g>
 <g stroke-width="0" fill="#840000">
  <polyline points="14807 8954 14807 9348 14040 9348 14040 8954 14807 8954" fill-rule="evenodd"/>
  <polyline points="14807 8454 14807 8848 14040 8848 14040 8454 14807 8454" fill-rule="evenodd"/>
  <polyline points="14807 7954 14807 8348 14040 8348 14040 7954 14807 7954" fill-rule="evenodd"/>
  <polyline points="14807 7454 14807 7848 14040 7848 14040 7454 14807 7454" fill-rule="evenodd"/>
  <polyline points="12681 7454 12681 7848 11914 7848 11914 7454 12681 7454" fill-rule="evenodd"/>
  <polyline points="12681 7954 12681 8348 11914 8348 11914 7954 12681 7954" fill-rule="evenodd"/>
  <polyline points="12681 8454 12681 8848 11914 8848 11914 8454 12681 8454" fill-rule="evenodd"/>
  <polyline points="12681 8954 12681 9348 11914 9348 11914 8954 12681 8954" fill-rule="evenodd"/>
  <circle cy="4901.6" cx="3361" r="767.72"/>
 </g>
 <g fill-rule="evenodd" stroke-width="0" fill="#840000">
  <polyline points="18782 9622 20039 9622 20039 10480 18782 10480 18782 9622"/>
  <polyline points="18782 11022 20039 11022 20039 11880 18782 11880 18782 11022"/>
  <polyline points="17892 11675 17892 12127 17420 12127 17420 11675 17892 11675"/>
  <polyline points="17301 11675 17301 12127 16829 12127 16829 11675 17301 11675"/>
  <polyline points="21107 4921 21559 4921 21559 5393 21107 5393 21107 4921"/>
  <polyline points="21107 5511 21559 5511 21559 5984 21107 5984 21107 5511"/>
  <polyline points="6205 6082 5752 6082 5752 5610 6205 5610 6205 6082"/>
  <polyline points="6205 5492 5752 5492 5752 5019 6205 5019 6205 5492"/>
  <polyline points="5811 12874 5359 12874 5359 12401 5811 12401 5811 12874"/>
  <polyline points="5811 12283 5359 12283 5359 11811 5811 11811 5811 12283"/>
  <polyline points="20516 11712 20969 11712 20969 12185 20516 12185 20516 11712"/>
  <polyline points="20516 12303 20969 12303 20969 12775 20516 12775 20516 12303"/>
  <polyline points="12829 10627 12829 10175 13301 10175 13301 10627 12829 10627"/>
  <polyline points="13420 10627 13420 10175 13892 10175 13892 10627 13420 10627"/>
  <polyline points="12829 11377 12829 10925 13301 10925 13301 11377 12829 11377"/>
  <polyline points="13420 11377 13420 10925 13892 10925 13892 11377 13420 11377"/>
  <polyline points="21447 7075 21447 7527 20974 7527 20974 7075 21447 7075"/>
  <polyline points="20856 7075 20856 7527 20384 7527 20384 7075 20856 7075"/>
  <polyline points="21437 8175 21437 8627 20965 8627 20965 8175 21437 8175"/>
  <polyline points="20847 8175 20847 8627 20374 8627 20374 8175 20847 8175"/>
  <polyline points="21442 9175 21442 9627 20970 9627 20970 9175 21442 9175"/>
  <polyline points="20851 9175 20851 9627 20379 9627 20379 9175 20851 9175"/>
  <polyline points="6243 8241 6578 8241 6578 8631 6243 8631 6243 8241"/>
  <polyline points="6243 9072 6578 9072 6578 9461 6243 9461 6243 9072"/>
  <polyline points="6578 8161 6243 8161 6243 7772 6578 7772 6578 8161"/>
  <polyline points="6578 7331 6243 7331 6243 6941 6578 6941 6578 7331"/>
  <polyline points="3831 7946 3831 7631 4520 7631 4520 7946 3831 7946"/>
  <polyline points="3831 8202 3831 7887 4520 7887 4520 8202 3831 8202"/>
  <polyline points="3831 8458 3831 8143 4520 8143 4520 8458 3831 8458"/>
  <polyline points="3831 8714 3831 8399 4520 8399 4520 8714 3831 8714"/>
  <polyline points="3831 8970 3831 8655 4520 8655 4520 8970 3831 8970"/>
 </g>
 <g stroke-linejoin="round" fill-opacity="0" stroke="#840000" stroke-linecap="round" stroke-width="531.5">
  <path d="m4176 7257v119"/>
  <path d="m4176 9226v118"/>
 </g>
 <g stroke-linejoin="round" fill-opacity="0" stroke="#840000" stroke-linecap="round" stroke-width="551.18">
  <path d="m3004 6923h217"/>
  <path d="m3004 9679h217"/>
 </g>
 <g fill-rule="evenodd" stroke-width="0" fill="#840000">
  <polyline points="15055 9733 15566 9733 15566 10088 15055 10088 15055 9733"/>
  <polyline points="15055 10324 15566 10324 15566 10678 15055 10678 15055 10324"/>
  <polyline points="7555 7129 8066 7129 8066 7483 7555 7483 7555 7129"/>
  <polyline points="7555 7719 8066 7719 8066 8074 7555 8074 7555 7719"/>
  <polyline points="8888 8057 8888 7545 9242 7545 9242 8057 8888 8057"/>
  <polyline points="9479 8057 9479 7545 9833 7545 9833 8057 9479 8057"/>
  <polyline points="8888 8807 8888 8295 9242 8295 9242 8807 8888 8807"/>
  <polyline points="9479 8807 9479 8295 9833 8295 9833 8807 9479 8807"/>
  <polyline points="17328 8745 17328 9257 16974 9257 16974 8745 17328 8745"/>
  <polyline points="16738 8745 16738 9257 16383 9257 16383 8745 16738 8745"/>
  <polyline points="17328 7795 17328 8307 16974 8307 16974 7795 17328 7795"/>
  <polyline points="16738 7795 16738 8307 16383 8307 16383 7795 16738 7795"/>
  <polyline points="17328 6845 17328 7357 16974 7357 16974 6845 17328 6845"/>
  <polyline points="16738 6845 16738 7357 16383 7357 16383 6845 16738 6845"/>
  <polyline points="19838 8145 19838 8657 19483 8657 19483 8145 19838 8145"/>
  <polyline points="19247 8145 19247 8657 18893 8657 18893 8145 19247 8145"/>
  <polyline points="16490 10284 16490 9870 17065 9870 17065 10284 16490 10284"/>
  <polyline points="16490 10658 16490 10244 17065 10244 17065 10658 16490 10658"/>
  <polyline points="16490 11032 16490 10618 17065 10618 17065 11032 16490 11032"/>
  <polyline points="17356 11032 17356 10618 17931 10618 17931 11032 17356 11032"/>
  <polyline points="17356 10284 17356 9870 17931 9870 17931 10284 17356 10284"/>
  <polyline points="23151 8118 21970 8118 21970 7685 23151 7685 23151 8118"/>
  <polyline points="23151 8618 21970 8618 21970 8185 23151 8185 23151 8618"/>
  <polyline points="23151 9118 21970 9118 21970 8685 23151 8685 23151 9118"/>
  <polyline points="23151 9618 21970 9618 21970 9185 23151 9185 23151 9618"/>
  <polyline points="23151 10118 21970 10118 21970 9685 23151 9685 23151 10118"/>
  <polyline points="25572 11303 23998 11303 23998 10830 25572 10830 25572 11303"/>
  <polyline points="23151 11303 21970 11303 21970 10830 23151 10830 23151 11303"/>
  <polyline points="23151 6972 21970 6972 21970 6500 23151 6500 23151 6972"/>
  <polyline points="25553 6972 24372 6972 24372 6500 25553 6500 25553 6972"/>
  <polyline points="25553 10118 24372 10118 24372 9685 25553 9685 25553 10118"/>
  <polyline points="25553 9618 24372 9618 24372 9185 25553 9185 25553 9618"/>
  <polyline points="25553 9118 24372 9118 24372 8685 25553 8685 25553 9118"/>
  <polyline points="25553 8618 24372 8618 24372 8185 25553 8185 25553 8618"/>
  <polyline points="25553 8118 24372 8118 24372 7685 25553 7685 25553 8118"/>
 </g>
 <g stroke-linejoin="round" stroke="#840084" stroke-linecap="round" stroke-width="100" fill="#840084">
  <polyline points="26992 14064 2288 14064 2288 4665 3173 4665 3173 13129 3177 13149 3188 13165 3205 13176 3223 13179 26057 13179 26077 13175 26093 13164 26104 13148 26107 13129 26107 4665 26103 4645 26092 4629 26076 4618 26057 4615 3223 4615 3203 4619 3187 4630 3176 4647 3173 4665 2288 4665 2288 3927 26992 3927 26992 14064" fill-rule="evenodd"/>
 </g>
 <g fill-rule="evenodd" stroke-width="0" fill="#840000">
  <polyline points="14729 9033 14729 9269 14118 9269 14118 9033 14729 9033"/>
  <polyline points="14729 8533 14729 8769 14118 8769 14118 8533 14729 8533"/>
  <polyline points="14729 8033 14729 8269 14118 8269 14118 8033 14729 8033"/>
  <polyline points="14729 7533 14729 7769 14118 7769 14118 7533 14729 7533"/>
  <polyline points="12603 7533 12603 7769 11992 7769 11992 7533 12603 7533"/>
  <polyline points="12603 8033 12603 8269 11992 8269 11992 8033 12603 8033"/>
  <polyline points="12603 8533 12603 8769 11992 8769 11992 8533 12603 8533"/>
  <polyline points="12603 9033 12603 9269 11992 9269 11992 9033 12603 9033"/>
  <polyline points="18860 9701 19960 9701 19960 10401 18860 10401 18860 9701"/>
  <polyline points="18860 11101 19960 11101 19960 11801 18860 11801 18860 11101"/>
  <polyline points="17813 11753 17813 12049 17498 12049 17498 11753 17813 11753"/>
  <polyline points="17223 11753 17223 12049 16908 12049 16908 11753 17223 11753"/>
  <polyline points="21185 5e3 21481 5e3 21481 5314 21185 5314 21185 5e3"/>
  <polyline points="21185 5590 21481 5590 21481 5905 21185 5905 21185 5590"/>
  <polyline points="6126 6003 5831 6003 5831 5688 6126 5688 6126 6003"/>
  <polyline points="6126 5413 5831 5413 5831 5098 6126 5098 6126 5413"/>
  <polyline points="5733 12795 5437 12795 5437 12480 5733 12480 5733 12795"/>
  <polyline points="5733 12204 5437 12204 5437 11889 5733 11889 5733 12204"/>
  <polyline points="20595 11791 20890 11791 20890 12106 20595 12106 20595 11791"/>
  <polyline points="20595 12381 20890 12381 20890 12696 20595 12696 20595 12381"/>
  <polyline points="12908 10549 12908 10253 13223 10253 13223 10549 12908 10549"/>
  <polyline points="13498 10549 13498 10253 13813 10253 13813 10549 13498 10549"/>
  <polyline points="12908 11299 12908 11003 13223 11003 13223 11299 12908 11299"/>
  <polyline points="13498 11299 13498 11003 13813 11003 13813 11299 13498 11299"/>
  <polyline points="21368 7153 21368 7449 21053 7449 21053 7153 21368 7153"/>
  <polyline points="20777 7153 20777 7449 20462 7449 20462 7153 20777 7153"/>
  <polyline points="21359 8253 21359 8549 21044 8549 21044 8253 21359 8253"/>
  <polyline points="20768 8253 20768 8549 20453 8549 20453 8253 20768 8253"/>
  <polyline points="21363 9253 21363 9549 21048 9549 21048 9253 21363 9253"/>
  <polyline points="20773 9253 20773 9549 20458 9549 20458 9253 20773 9253"/>
  <polyline points="6322 8320 6499 8320 6499 8552 6322 8552 6322 8320"/>
  <polyline points="6322 9150 6499 9150 6499 9383 6322 9383 6322 9150"/>
  <polyline points="6499 8083 6322 8083 6322 7850 6499 7850 6499 8083"/>
  <polyline points="6499 7252 6322 7252 6322 7020 6499 7020 6499 7252"/>
  <polyline points="3910 7868 3910 7710 4441 7710 4441 7868 3910 7868"/>
  <polyline points="3910 8124 3910 7966 4441 7966 4441 8124 3910 8124"/>
  <polyline points="3910 8379 3910 8222 4441 8222 4441 8379 3910 8379"/>
  <polyline points="3910 8635 3910 8478 4441 8478 4441 8635 3910 8635"/>
  <polyline points="3910 8891 3910 8734 4441 8734 4441 8891 3910 8891"/>
  <polyline points="15133 9812 15488 9812 15488 10009 15133 10009 15133 9812"/>
  <polyline points="15133 10403 15488 10403 15488 10600 15133 10600 15133 10403"/>
  <polyline points="7633 7207 7988 7207 7988 7404 7633 7404 7633 7207"/>
  <polyline points="7633 7798 7988 7798 7988 7995 7633 7995 7633 7798"/>
  <polyline points="8967 7978 8967 7624 9164 7624 9164 7978 8967 7978"/>
  <polyline points="9557 7978 9557 7624 9754 7624 9754 7978 9557 7978"/>
  <polyline points="8967 8728 8967 8374 9164 8374 9164 8728 8967 8728"/>
  <polyline points="9557 8728 9557 8374 9754 8374 9754 8728 9557 8728"/>
  <polyline points="17249 8824 17249 9178 17053 9178 17053 8824 17249 8824"/>
  <polyline points="16659 8824 16659 9178 16462 9178 16462 8824 16659 8824"/>
  <polyline points="17249 7874 17249 8228 17053 8228 17053 7874 17249 7874"/>
  <polyline points="16659 7874 16659 8228 16462 8228 16462 7874 16659 7874"/>
  <polyline points="17249 6924 17249 7278 17053 7278 17053 6924 17249 6924"/>
  <polyline points="16659 6924 16659 7278 16462 7278 16462 6924 16659 6924"/>
  <polyline points="19759 8224 19759 8578 19562 8578 19562 8224 19759 8224"/>
  <polyline points="19168 8224 19168 8578 18972 8578 18972 8224 19168 8224"/>
  <polyline points="16569 10205 16569 9949 16986 9949 16986 10205 16569 10205"/>
  <polyline points="16569 10579 16569 10323 16986 10323 16986 10579 16569 10579"/>
  <polyline points="16569 10953 16569 10697 16986 10697 16986 10953 16569 10953"/>
  <polyline points="17435 10953 17435 10697 17852 10697 17852 10953 17435 10953"/>
  <polyline points="17435 10205 17435 9949 17852 9949 17852 10205 17435 10205"/>
  <polyline points="23072 8039 22049 8039 22049 7763 23072 7763 23072 8039"/>
  <polyline points="23072 8539 22049 8539 22049 8263 23072 8263 23072 8539"/>
  <polyline points="23072 9039 22049 9039 22049 8763 23072 8763 23072 9039"/>
  <polyline points="23072 9539 22049 9539 22049 9263 23072 9263 23072 9539"/>
  <polyline points="23072 10039 22049 10039 22049 9763 23072 9763 23072 10039"/>
  <polyline points="25494 11224 24076 11224 24076 10909 25494 10909 25494 11224"/>
  <polyline points="23072 11224 22049 11224 22049 10909 23072 10909 23072 11224"/>
  <polyline points="23072 6893 22049 6893 22049 6578 23072 6578 23072 6893"/>
  <polyline points="25474 6893 24450 6893 24450 6578 25474 6578 25474 6893"/>
  <polyline points="25474 10039 24450 10039 24450 9763 25474 9763 25474 10039"/>
  <polyline points="25474 9539 24450 9539 24450 9263 25474 9263 25474 9539"/>
  <polyline points="25474 9039 24450 9039 24450 8763 25474 8763 25474 9039"/>
  <polyline points="25474 8539 24450 8539 24450 8263 25474 8263 25474 8539"/>
  <polyline points="25474 8039 24450 8039 24450 7763 25474 7763 25474 8039"/>
 </g>
 <g stroke-linejoin="round" fill-opacity="0" stroke="#008484" stroke-linecap="round" stroke-width="59.055">
  <path d="m7660 13051h2e3"/>
  <path d="m6550 13161v-610"/>
  <path d="m6660 12051h1e3"/>
  <path d="m7660 12051v1e3"/>
  <path d="m9660 13051v-2e3"/>
  <path d="m9660 11051h-2e3"/>
  <path d="m6550 13161h610"/>
  <path d="m6660 11051v1e3"/>
  <path d="m7660 11051h-1e3"/>
  <path d="m14177 9415v-57"/>
  <path d="m12544 9415v-57"/>
  <path d="m12544 7387v57"/>
  <path d="m14177 7387v57"/>
  <path d="m14177 9415h-1633"/>
  <path d="m14177 7387h-1633"/>
  <path d="m14177 9358h552"/>
  <path d="m20010 9651h-1200"/>
  <path d="m18810 11101v750"/>
  <path d="m18810 11851h1200"/>
  <path d="m20010 11851v-750"/>
  <path d="m20010 10451v-800"/>
  <path d="m20010 9730h-1200"/>
  <path d="m18810 9651v800"/>
  <path d="m17498 12137h-275"/>
  <path d="m17223 11665h275"/>
  <path d="m21569 5314v276"/>
  <path d="m21097 5590v-276"/>
  <path d="m5742 5688v-275"/>
  <path d="m6215 5413v275"/>
  <path d="m5349 12480v-276"/>
  <path d="m5821 12204v276"/>
  <path d="m20979 12106v275"/>
  <path d="m20506 12381v-275"/>
  <path d="m13223 10165h275"/>
  <path d="m13498 10637h-275"/>
  <path d="m13223 10915h275"/>
  <path d="m13498 11387h-275"/>
  <path d="m21053 7537h-276"/>
  <path d="m20777 7065h276"/>
  <path d="m21044 8637h-276"/>
  <path d="m20768 8165h276"/>
  <path d="m21048 9637h-275"/>
  <path d="m20773 9165h275"/>
  <path d="m6410 8950v98"/>
  <path d="m6410 8753v-99"/>
  <path d="m6410 8753l138 197"/>
  <path d="m6548 8950h-275"/>
  <path d="m6273 8950l137-197"/>
  <path d="m6548 8753h-275"/>
  <path d="m6096 8339v945"/>
  <path d="m6725 8339v945"/>
  <path d="m6410 7453v-99"/>
  <path d="m6410 7650v98"/>
  <path d="m6410 7650l-137-197"/>
  <path d="m6273 7453h275"/>
  <path d="m6548 7453l-138 197"/>
  <path d="m6273 7650h275"/>
  <path d="m6725 8063v-945"/>
  <path d="m6096 8063v-945"/>
  <path d="m2058 6588v3425"/>
  <path d="m4579 6588v3425"/>
  <path d="m4579 10013h-2521"/>
  <path d="m2542 10013v-3425"/>
  <path d="m2058 6588h2521"/>
  <path d="m15045 10403v-394"/>
  <path d="m15576 10009v394"/>
  <path d="m7545 7798v-394"/>
  <path d="m8076 7404v394"/>
  <path d="m9557 8067h-393"/>
  <path d="m9164 7535h393"/>
  <path d="m9557 8817h-393"/>
  <path d="m9164 8285h393"/>
  <path d="m16659 8735h394"/>
  <path d="m17053 9267h-394"/>
  <path d="m16659 7785h394"/>
  <path d="m17053 8317h-394"/>
  <path d="m16659 6835h394"/>
  <path d="m17053 7367h-394"/>
  <path d="m19168 8135h394"/>
  <path d="m19562 8667h-394"/>
  <circle cy="9782.3" cx="17093" r="39.37"/>
  <path d="m17309 9880h-197"/>
  <path d="m17309 11022v-1142"/>
  <path d="m17112 11022h197"/>
  <path d="m17112 9880v1142"/>
  <path d="m22029 6578h3465"/>
  <path d="m25494 6578v4646"/>
  <path d="m25494 11224h-3465"/>
  <path d="m22029 11224v-4646"/>
 </g>
 <g stroke-linejoin="round" fill-opacity="0" stroke="#C2C200" stroke-linecap="round" stroke-width="59.055">
  <path d="m5331 12842h-394v-150l19-38 19-19 37-18h56l38 18 18 19 19 38v150"/>
  <path d="m5331 12242v225"/>
  <path d="m5331 12354h-394l56 38 38 37 19 38"/>
  <path d="m12976 9957v-394"/>
  <path d="m13389 9920l-19 18-56 19h-38l-56-19-38-37-18-38-19-75v-56l19-75 18-37 38-38 56-19h38l56 19 19 19"/>
  <path d="m13764 9957h-225"/>
  <path d="m13651 9957v-394l-37 57-38 37-37 19"/>
  <path d="m19851 10867l19 18 19 57v37l-19 56-38 38-37 19-75 18h-56l-75-18-38-19-37-38-19-56v-37l19-57 18-18"/>
  <path d="m19889 10492v225"/>
  <path d="m19889 10604h-394l56 38 38 37 18 38"/>
  <path d="m17295 12790l-19 18-56 19h-38l-56-19-37-37-19-38-19-75v-56l19-75 19-37 37-38 56-18h38l56 18 19 19"/>
  <path d="m17445 12471l19-19 37-18h94l37 18 19 19 19 37v38l-19 56-225 225h244"/>
  <path d="m22222 5518l18 19 19 56v37l-19 57-37 37-38 19-75 19h-56l-75-19-37-19-38-37-19-57v-37l19-56 19-19"/>
  <path d="m21865 5387v-244l150 131v-56l19-38 19-18 37-19h94l38 19 18 18 19 38v112l-19 38-18 19"/>
  <path d="m5371 5616l19 19 19 56v38l-19 56-38 38-37 18-75 19h-56l-75-19-38-18-37-38-19-56v-38l19-56 18-19"/>
  <path d="m5146 5279h263"/>
  <path d="m4996 5373l281 93v-243"/>
  <path d="m4977 12408l19 18 19 57v37l-19 56-37 38-38 19-75 18h-56l-75-18-37-19-38-38-19-56v-37l19-57 19-18"/>
  <path d="m4621 12051v188l188 19-19-19-19-38v-93l19-38 19-19 37-18h94l37 18 19 19 19 38v93l-19 38-19 19"/>
  <path d="m21631 12309l19 19 19 56v38l-19 56-38 37-37 19-75 19h-56l-75-19-38-19-37-37-19-56v-38l19-56 18-19"/>
  <path d="m21275 11972v75l19 37 18 19 57 37 75 19h150l37-19 19-18 19-38v-75l-19-37-19-19-37-19h-94l-38 19-18 19-19 37v75l19 38 18 18 38 19"/>
  <path d="m13295 9794l-19 18-56 19h-38l-56-19-37-37-19-38-19-75v-56l19-75 19-37 37-38 56-19h38l56 19 19 19"/>
  <path d="m13426 9437h263l-169 394"/>
  <path d="m13295 10544l-19 18-56 19h-38l-56-19-37-37-19-38-19-75v-56l19-75 19-37 37-38 56-19h38l56 19 19 19"/>
  <path d="m13520 10356l-38-19-18-18-19-38v-19l19-37 18-19 38-19h75l37 19 19 19 19 37v19l-19 38-19 18-37 19h-75l-38 19-18 19-19 37v75l19 38 18 18 38 19h75l37-19 19-18 19-38v-75l-19-37-19-19-37-19"/>
  <path d="m20850 8190l-19 18-56 19h-38l-56-19-38-37-18-38-19-75v-56l19-75 18-37 38-38 56-18h38l56 18 19 19"/>
  <path d="m21037 8227h75l38-19 18-18 38-57 19-75v-150l-19-37-19-19-37-18h-75l-38 18-19 19-18 37v94l18 38 19 18 38 19h75l37-19 19-18 19-38"/>
  <path d="m20653 9290l-19 18-56 19h-38l-56-19-38-37-18-38-19-75v-56l19-75 18-37 38-38 56-18h38l56 18 19 19"/>
  <path d="m21028 9327h-225"/>
  <path d="m20915 9327v-393l-37 56-38 37-37 19"/>
  <path d="m21271 8934h38l37 18 19 19 19 37 19 75v94l-19 75-19 38-19 18-37 19h-38l-37-19-19-18-19-38-18-75v-94l18-75 19-37 19-19 37-18"/>
  <path d="m20657 10290l-18 18-57 19h-37l-56-19-38-37-19-38-18-75v-56l18-75 19-37 38-38 56-18h37l57 18 18 19"/>
  <path d="m21032 10327h-225"/>
  <path d="m20920 10327v-393l-38 56-37 37-38 19"/>
  <path d="m21407 10327h-225"/>
  <path d="m21295 10327v-393l-38 56-37 37-38 19"/>
  <path d="m7317 9142h-394v-94l19-56 37-38 38-19 75-18h56l75 18 38 19 37 38 19 56v94"/>
  <path d="m7317 8542v225"/>
  <path d="m7317 8654h-394l56 38 38 37 19 38"/>
  <path d="m5860 7842h-393v-94l18-56 38-38 37-19 75-18h57l75 18 37 19 38 38 18 56v94"/>
  <path d="m5504 7467l-19-19-18-38v-93l18-38 19-19 38-18h37l56 18 225 225v-243"/>
  <path d="m5097 8592h-394v-150l19-38 19-19 37-18h56l38 18 19 19 18 38v150"/>
  <path d="m4741 8217l-19-19-19-38v-93l19-38 19-19 37-18h38l56 18 225 225v-243"/>
  <path d="m16237 10271l-188 132"/>
  <path d="m16237 10496h-394v-150l19-37 18-19 38-19h56l38 19 18 19 19 37v150"/>
  <path d="m16237 9896v225"/>
  <path d="m16237 10009h-394l56 37 38 38 18 37"/>
  <path d="m8737 7667l-188 131"/>
  <path d="m8737 7892h-394v-150l19-38 18-19 38-18h56l38 18 18 19 19 38v150"/>
  <path d="m8380 7517l-18-19-19-38v-93l19-38 18-19 38-18h37l57 18 225 225v-243"/>
  <path d="m9295 7231l-131-187"/>
  <path d="m9070 7231v-394h150l37 19 19 19 19 37v57l-19 37-19 19-37 19h-150"/>
  <path d="m9426 6837h244l-131 150h56l37 19 19 19 19 37v94l-19 38-19 18-37 19h-113l-37-19-19-18"/>
  <path d="m9295 7981l-131-187"/>
  <path d="m9070 7981v-394h150l37 19 19 19 19 37v57l-19 37-19 19-37 19h-150"/>
  <path d="m9632 7719v262"/>
  <path d="m9539 7569l-94 281h244"/>
  <path d="m16790 9927l-131-187"/>
  <path d="m16565 9927v-393h150l38 18 18 19 19 37v57l-19 37-18 19-38 19h-150"/>
  <path d="m17146 9534h-187l-19 187 19-19 37-19h94l38 19 18 19 19 37v94l-19 38-18 18-38 19h-94l-37-19-19-18"/>
  <path d="m16790 8977l-131-187"/>
  <path d="m16565 8977v-393h150l38 18 18 19 19 37v57l-19 37-18 19-38 19h-150"/>
  <path d="m17128 8584h-75l-38 18-19 19-37 56-19 75v150l19 38 19 18 37 19h75l38-19 18-18 19-38v-94l-19-37-18-19-38-19h-75l-37 19-19 19-19 37"/>
  <path d="m16790 8027l-131-187"/>
  <path d="m16565 8027v-393h150l38 18 18 19 19 37v57l-19 37-18 19-38 19h-150"/>
  <path d="m16921 7634h263l-169 393"/>
  <path d="m19300 9327l-132-187"/>
  <path d="m19075 9327v-393h150l37 18 19 19 19 37v57l-19 37-19 19-37 19h-150"/>
  <path d="m19525 9102l-38-19-19-18-18-38v-19l18-37 19-19 38-18h75l37 18 19 19 19 37v19l-19 38-19 18-37 19h-75l-38 19-19 19-18 37v75l18 38 19 18 38 19h75l37-19 19-18 19-38v-75l-19-37-19-19-37-19"/>
  <path d="m16891 9232v318l19 38 18 18 38 19h75l37-19 19-18 19-38v-318"/>
  <path d="m17510 9625h-225"/>
  <path d="m17397 9625v-393l-37 56-38 37-37 19"/>
  <path d="m23743 9201h318l38-19 18-18 19-38v-75l-19-37-18-19-38-19h-318"/>
  <path d="m23780 8807l-19-18-18-38v-94l18-37 19-19 38-19h37l56 19 225 225v-244"/>
 </g>
 <g stroke-linejoin="round" fill-opacity="0" stroke="#C2C200" stroke-linecap="round" stroke-width="3.937">
  <path d="m2260 14114h24782"/>
  <path d="m2238 3877v10237"/>
  <path d="m27042 3877h-24804"/>
  <path d="m27042 14114v-10237"/>
 </g>
</svg>
