<?xml version="1.0" encoding="UTF-8" standalone="no"?>
<!DOCTYPE svg  PUBLIC '-//W3C//DTD SVG 1.1//EN'  'http://www.w3.org/Graphics/SVG/1.1/DTD/svg11.dtd'>
<svg viewBox="2500 300 11950 10910 " width="3cm" height="2cm" xmlns="http://www.w3.org/2000/svg" version="1.1" preserveAspectRatio="xMinYMin slice">
 <title>SVG Picture created as grideye_usb.two_sided-brd.svg date 2016/04/12 21:21:32</title>
 <desc>Picture generated by PCBNEW</desc>
 <g fill-rule="evenodd" stroke-width="0" fill="#008400">
  <polyline points="11531 3323 11531 3560 10921 3560 10921 3323 11531 3323"/>
  <polyline points="11531 3823 11531 4060 10921 4060 10921 3823 11531 3823"/>
  <polyline points="11531 4323 11531 4560 10921 4560 10921 4323 11531 4323"/>
  <polyline points="11531 4823 11531 5060 10921 5060 10921 4823 11531 4823"/>
  <polyline points="9405 4823 9405 5060 8795 5060 8795 4823 9405 4823"/>
  <polyline points="9405 4323 9405 4560 8795 4560 8795 4323 9405 4323"/>
  <polyline points="9405 3823 9405 4060 8795 4060 8795 3823 9405 3823"/>
  <polyline points="9405 3323 9405 3560 8795 3560 8795 3323 9405 3323"/>
  <polyline points="6546 6854 6546 5754 7246 5754 7246 6854 6546 6854"/>
  <polyline points="7946 6854 7946 5754 8646 5754 8646 6854 7946 6854"/>
  <polyline points="5862 5280 5567 5280 5567 4965 5862 4965 5862 5280"/>
  <polyline points="5862 4690 5567 4690 5567 4375 5862 4375 5862 4690"/>
  <polyline points="8431 2810 8431 3105 8116 3105 8116 2810 8431 2810"/>
  <polyline points="7840 2810 7840 3105 7525 3105 7525 2810 7840 2810"/>
  <polyline points="8431 2022 8431 2318 8116 2318 8116 2022 8431 2022"/>
  <polyline points="7840 2022 7840 2318 7525 2318 7525 2022 7840 2022"/>
 </g>
 <g stroke-linejoin="round" fill-opacity="0" stroke="#840000" stroke-linecap="round" stroke-width="374.02">
  <path d="m4755 3272v118"/>
  <path d="m4755 5241v118"/>
 </g>
 <g stroke-linejoin="round" fill-opacity="0" stroke="#840000" stroke-linecap="round" stroke-width="393.7">
  <path d="m3584 2938h216"/>
  <path d="m3584 5694h216"/>
 </g>
 <g fill-rule="evenodd" stroke-width="0" fill="#008400">
  <polyline points="6600 2583 6600 2938 6403 2938 6403 2583 6600 2583"/>
  <polyline points="6010 2583 6010 2938 5813 2938 5813 2583 6010 2583"/>
  <polyline points="7073 5418 6718 5418 6718 5221 7073 5221 7073 5418"/>
  <polyline points="7073 4827 6718 4827 6718 4631 7073 4631 7073 4827"/>
  <polyline points="7585 4906 7585 4552 7781 4552 7781 4906 7585 4906"/>
  <polyline points="8175 4906 8175 4552 8372 4552 8372 4906 8175 4906"/>
  <polyline points="7585 4119 7585 3764 7781 3764 7781 4119 7585 4119"/>
  <polyline points="8175 4119 8175 3764 8372 3764 8372 4119 8175 4119"/>
  <polyline points="11797 6599 11443 6599 11443 6402 11797 6402 11797 6599"/>
  <polyline points="11797 6009 11443 6009 11443 5812 11797 5812 11797 6009"/>
  <polyline points="11010 6599 10655 6599 10655 6402 11010 6402 11010 6599"/>
  <polyline points="11010 6009 10655 6009 10655 5812 11010 5812 11010 6009"/>
  <polyline points="9632 6599 9277 6599 9277 6402 9632 6402 9632 6599"/>
  <polyline points="9632 6009 9277 6009 9277 5812 9632 5812 9632 6009"/>
  <polyline points="4443 6825 4443 6570 4860 6570 4860 6825 4443 6825"/>
  <polyline points="4443 6451 4443 6196 4860 6196 4860 6451 4443 6451"/>
  <polyline points="4443 6077 4443 5822 4860 5822 4860 6077 4443 6077"/>
  <polyline points="5309 6077 5309 5822 5726 5822 5726 6077 5309 6077"/>
  <polyline points="5309 6825 5309 6570 5726 6570 5726 6825 5309 6825"/>
 </g>
 <g stroke-width="0" fill="#840000">
  <circle cy="1383" cx="13392" r="688.98"/>
 </g>
 <g stroke-width="0" fill="#840000">
  <circle cy="7288.5" cx="13392" r="688.98"/>
 </g>
 <g stroke-width="0" fill="#840000">
  <circle cy="1383" cx="3549.6" r="688.98"/>
 </g>
 <g stroke-width="0" fill="#840000">
  <circle cy="7288.5" cx="3549.6" r="688.98"/>
 </g>
 <g stroke-width="0" fill="#C2C2C2">
  <circle cy="6698" cx="6305.5" r="135"/>
 </g>
 <g stroke-width="0" fill="#C2C2C2">
  <circle cy="3351.5" cx="7880.3" r="135"/>
 </g>
 <g stroke-width="0" fill="#C2C2C2">
  <circle cy="5123.2" cx="4022" r="135"/>
 </g>
 <g stroke-width="0" fill="#C2C2C2">
  <circle cy="4532.6" cx="4022" r="135"/>
 </g>
 <g stroke-width="0" fill="#C2C2C2">
  <circle cy="3745.2" cx="6502.3" r="135"/>
 </g>
 <g stroke-width="0" fill="#C2C2C2">
  <circle cy="1973.6" cx="12408" r="135"/>
 </g>
 <g stroke-width="0" fill="#C2C2C2">
  <circle cy="6501.1" cx="7683.4" r="135"/>
 </g>
 <g stroke-width="0" fill="#C2C2C2">
  <circle cy="2170.4" cx="4337" r="135"/>
 </g>
 <g stroke-width="0" fill="#C2C2C2">
  <circle cy="6304.3" cx="3943.3" r="135"/>
 </g>
 <g stroke-width="0" fill="#C2C2C2">
  <circle cy="2170.4" cx="6305.5" r="135"/>
 </g>
 <g stroke-width="0" fill="#C2C2C2">
  <circle cy="6698" cx="12408" r="135"/>
 </g>
 <g stroke-width="0" fill="#C2C2C2">
  <circle cy="4335.8" cx="2959" r="135"/>
 </g>
 <g stroke-width="0" fill="#C2C2C2">
  <circle cy="7879.1" cx="6502.3" r="135"/>
 </g>
 <g stroke-width="0" fill="#C2C2C2">
  <circle cy="7879.1" cx="10439" r="135"/>
 </g>
 <g stroke-width="0" fill="#C2C2C2">
  <circle cy="4335.8" cx="13983" r="135"/>
 </g>
 <g stroke-width="0" fill="#C2C2C2">
  <circle cy="792.48" cx="10439" r="135"/>
 </g>
 <g stroke-width="0" fill="#C2C2C2">
  <circle cy="792.48" cx="6502.3" r="135"/>
 </g>
 <g stroke-width="0" fill="#C2C2C2">
  <circle cy="1776.7" cx="7880.3" r="135"/>
 </g>
 <g stroke-width="0" fill="#C2C2C2">
  <circle cy="3548.4" cx="5518.1" r="135"/>
 </g>
 <g stroke-width="0" fill="#C2C2C2">
  <circle cy="3942.1" cx="7289.7" r="135"/>
 </g>
 <g stroke-width="0" fill="#C2C2C2">
  <circle cy="4094.1" cx="6502.3" r="135"/>
 </g>
 <g stroke-width="0" fill="#C2C2C2">
  <circle cy="3835.8" cx="12855" r="135"/>
 </g>
 <g stroke-width="0" fill="#C2C2C2">
  <circle cy="5320" cx="11817" r="135"/>
 </g>
 <g stroke-width="0" fill="#C2C2C2">
  <circle cy="6816.1" cx="9848.8" r="135"/>
 </g>
 <g stroke-width="0" fill="#C2C2C2">
  <circle cy="4335.8" cx="12355" r="135"/>
 </g>
 <g stroke-width="0" fill="#C2C2C2">
  <circle cy="6894.8" cx="9230.1" r="135"/>
 </g>
 <g stroke-width="0" fill="#C2C2C2">
  <circle cy="4335.8" cx="12855" r="135"/>
 </g>
 <g stroke-linejoin="round" fill-opacity="0" stroke="#008400" stroke-linecap="round" stroke-width="118.11">
  <path d="m6559 7148h4431"/>
  <path d="m10990 7148h376"/>
  <path d="m10833 7012h21"/>
  <path d="m10854 7012l136 136"/>
  <path d="m10833 7012v-511"/>
  <path d="m10833 7119v-107"/>
 </g>
 <g stroke-linejoin="round" fill-opacity="0" stroke="#008400" stroke-linecap="round" stroke-width="60">
  <path d="m10833 7119h-119"/>
  <path d="m10714 7119h-1102"/>
 </g>
 <g stroke-linejoin="round" fill-opacity="0" stroke="#008400" stroke-linecap="round" stroke-width="118.11">
  <path d="m10821 7012l-107 107"/>
  <path d="m10833 7012h-12"/>
 </g>
 <g stroke-linejoin="round" fill-opacity="0" stroke="#008400" stroke-linecap="round" stroke-width="60">
  <path d="m9612 7119h-157"/>
 </g>
 <g stroke-linejoin="round" fill-opacity="0" stroke="#008400" stroke-linecap="round" stroke-width="118.11">
  <path d="m9484 7016h25"/>
  <path d="m9509 7016l103 103"/>
  <path d="m9455 7119v-74"/>
  <path d="m9455 7045l29-29"/>
  <path d="m9484 7016v-270"/>
  <path d="m9484 6746l-29-29"/>
  <path d="m9455 6717v-216"/>
  <path d="m11366 7148l254-254"/>
  <path d="m11620 6894v-393"/>
  <path d="m6305 6894l254 254"/>
  <path d="m6305 6697v197"/>
  <path d="m6305 6697h197"/>
  <path d="m6502 6697l394-393"/>
  <path d="m5518 6697h787"/>
 </g>
 <g stroke-linejoin="round" fill-opacity="0" stroke="#008400" stroke-linecap="round" stroke-width="60">
  <path d="m6699 6107l197 197"/>
  <path d="m7610 3351l-591-591"/>
  <path d="m7019 2760h-517"/>
  <path d="m7880 3351h-270"/>
 </g>
 <g stroke-linejoin="round" fill-opacity="0" stroke="#008400" stroke-linecap="round" stroke-width="118.11">
  <path d="m4336 2170h191"/>
  <path d="m4527 2170l648-648"/>
  <path d="m12272 1838l135 135"/>
  <path d="m5175 1522h6781"/>
  <path d="m11956 1522l316 316"/>
  <path d="m4022 4532v551"/>
  <path d="m7683 2170h-1378"/>
  <path d="m11226 4942v1064"/>
  <path d="m11226 6006l122 122"/>
  <path d="m11348 6128h489"/>
  <path d="m11837 6128l570 569"/>
  <path d="m4651 6323h-689"/>
  <path d="m3962 6323l-19-19"/>
 </g>
 <g stroke-linejoin="round" fill-opacity="0" stroke="#008400" stroke-linecap="round" stroke-width="60">
  <path d="m5518 5949v-629"/>
  <path d="m5518 5320l196-197"/>
 </g>
 <g stroke-linejoin="round" fill-opacity="0" stroke="#008400" stroke-linecap="round" stroke-width="118.11">
  <path d="m2959 6697v-2362"/>
  <path d="m3549 7288l-590-591"/>
  <path d="m6502 7879h-2362"/>
  <path d="m4140 7879l-591-591"/>
  <path d="m12801 7879h-2362"/>
  <path d="m13392 7288l-591 591"/>
  <path d="m13982 4335v2362"/>
  <path d="m13982 6697l-590 591"/>
  <path d="m6502 792h3937"/>
  <path d="m5214 6186l-236-237"/>
  <path d="m5333 6304l-119-118"/>
  <path d="m5333 6343l-119 118"/>
  <path d="m5214 6461l-236 236"/>
  <path d="m5214 6186v275"/>
  <path d="m6108 5320h788"/>
  <path d="m6108 4138l-590-590"/>
  <path d="m5911 6304l197-197"/>
  <path d="m5333 6304v39"/>
  <path d="m4978 6697h-327"/>
  <path d="m5911 6304h-578"/>
  <path d="m4978 5949h-327"/>
  <path d="m6108 4138v1969"/>
  <path d="m8273 3351l91 91"/>
  <path d="m8364 3442h736"/>
  <path d="m8273 2957v394"/>
  <path d="m8273 2170v787"/>
  <path d="m7880 1776h266"/>
  <path d="m8146 1776l127 128"/>
  <path d="m8273 1904v266"/>
  <path d="m5518 2760v-590"/>
  <path d="m5518 2170l393-394"/>
  <path d="m5911 1776h1969"/>
  <path d="m5911 2760h-393"/>
 </g>
 <g stroke-linejoin="round" fill-opacity="0" stroke="#008400" stroke-linecap="round" stroke-width="60">
  <path d="m5518 3548v-788"/>
 </g>
 <g stroke-linejoin="round" fill-opacity="0" stroke="#008400" stroke-linecap="round" stroke-width="118.11">
  <path d="m5518 3548v-788"/>
 </g>
 <g stroke-linejoin="round" fill-opacity="0" stroke="#008400" stroke-linecap="round" stroke-width="60">
  <path d="m6108 4138v1182"/>
  <path d="m6108 5320v787"/>
  <path d="m6817 5320h79"/>
  <path d="m7289 3942h394"/>
  <path d="m7683 4729h-787"/>
  <path d="m6699 4729h197"/>
  <path d="m6502 4532l197 197"/>
  <path d="m6502 4094v438"/>
  <path d="m11226 3442h664"/>
  <path d="m11890 3442l239 239"/>
  <path d="m12129 3681h571"/>
  <path d="m12700 3681l154 154"/>
  <path d="m12579 4557l-762 763"/>
  <path d="m11226 3942h1067"/>
  <path d="m12579 4227v330"/>
  <path d="m12293 3942l286 285"/>
  <path d="m11817 5320l-197 196"/>
  <path d="m11620 5516v394"/>
  <path d="m10636 4667v888"/>
  <path d="m10636 5555l197 197"/>
  <path d="m10833 5752v158"/>
  <path d="m11226 4442h-365"/>
  <path d="m10861 4442l-225 225"/>
  <path d="m9848 6894l985-984"/>
  <path d="m10833 5910"/>
  <path d="m11333 4442h-107"/>
  <path d="m12354 4335l-154-154"/>
  <path d="m9287 4942h-187"/>
  <path d="m12200 4181h-2152"/>
  <path d="m10048 4181l-761 761"/>
  <path d="m8273 4729l213 213"/>
  <path d="m8486 4942h614"/>
  <path d="m9017 5910v772"/>
  <path d="m9017 6682l213 212"/>
  <path d="m9100 4442h-977"/>
  <path d="m8085 4978l932 932"/>
  <path d="m8123 4442l-38 38"/>
  <path d="m8085 4480v498"/>
  <path d="m9017 5910h438"/>
  <path d="m9455 5910h78"/>
  <path d="m9673 3733h2290"/>
  <path d="m11963 3733l88 89"/>
  <path d="m12051 3822h292"/>
  <path d="m12343 3822l357 356"/>
  <path d="m12700 4178v3"/>
  <path d="m12700 4181l154 154"/>
  <path d="m9100 3942h365"/>
  <path d="m9465 3942l208-209"/>
  <path d="m9100 3942h187"/>
  <path d="m8273 3942h827"/>
 </g>
 <g stroke-linejoin="round" fill-rule="evenodd" stroke="#008400" stroke-linecap="round" stroke-width="100" fill="#008400">
  <polyline points="5792 1657 5792 1657 5398 2050 5361 2105 5361 2105 5349 2170 5349 3370 5310 3409 5273 3499 5273 3596 5310 3686 5379 3755 5469 3793 5523 3793 5855 4125 5827 4125 5764 4187 5764 4482 5772 4482 5772 4582 5764 4582 5764 4590 5664 4590 5664 4582 5379 4582 5317 4645 5317 4739 5355 4831 5425 4902 5466 4918 5463 4922 5455 4965 5455 5184 5419 5221 5388 5266 5386 5277 5378 5320 5378 5709 5309 5709 5268 5717 5231 5741 5206 5778 5197 5822 5197 5929 5098 5830 5043 5793 4978 5780 4964 5780 4940 5743 4904 5718 4860 5709 4443 5709 4402 5717 4365 5741 4339 5778 4331 5822 4331 5971 4301 5984 4231 6054 4193 6146 4193 6211 4255 6273 4601 6273 4601 6266 4701 6266 4701 6273 4709 6273 4709 6373 4701 6373 4701 6381 4601 6381 4601 6373 4255 6373 4193 6436 4193 6501 4231 6593 4301 6663 4331 6676 4331 6825 4338 6866 4362 6904 4399 6929 4443 6938 4860 6938 4901 6930 4938 6906 4963 6869 4964 6867 4978 6867 5043 6854 5098 6817 5197 6718 5197 6825 5204 6866 5229 6904 5265 6929 5309 6938 5726 6938 5767 6930 5804 6906 5830 6869 5830 6867 6128 6867 6136 6875 6136 6894 6149 6959 6185 7014 6213 7041 4312 7041 4227 6836 4002 6611 3796 6525 3796 6e3 3808 6e3 3926 5977 4025 5911 4092 5811 4115 5694 4092 5576 4025 5477 3926 5410 3808 5387 3796 5387 3796 5234 4458 5234 4458 5366 4480 5480 4545 5576 4641 5640 4755 5663 4868 5640 4965 5576 5029 5480 5052 5366 5052 5234 5029 5120 4965 5024 4868 4959 4755 4937 4641 4959 4545 5024 4480 5120 4458 5234 3796 5234 3796 4325 5317 4325 5317 4420 5379 4482 5664 4482 5664 4187 5602 4125 5517 4125 5425 4163 5355 4233 5317 4325 3796 4325 3796 3265 4458 3265 4458 3397 4480 3511 4545 3607 4641 3672 4755 3694 4868 3672 4965 3607 5029 3511 5052 3397 5052 3265 5029 3152 4965 3055 4868 2991 4755 2968 4641 2991 4545 3055 4480 3152 4458 3265 3796 3265 3796 3245 3808 3245 3926 3221 4025 3155 4092 3055 4115 2938 4092 2820 4025 2721 3926 2654 3808 2631 3796 2631 3796 2145 4001 2060 4226 1836 4312 1629 5833 1629 5792 1657"/>
  <polyline points="13145 6526 12940 6610 12715 6835 12629 7041 11712 7041 11739 7014 11739 7014 11776 6959 11789 6894 11789 6711 11797 6711 11838 6704 11875 6679 11900 6643 11909 6599 11909 6402 11902 6361 11877 6324 11841 6299 11797 6290 11443 6290 11402 6298 11365 6322 11339 6359 11331 6402 11331 6599 11338 6640 11362 6677 11399 6702 11443 6711 11451 6711 11451 6824 11296 6979 11060 6979 11002 6921 11002 6711 11010 6711 11050 6704 11088 6679 11113 6643 11122 6599 11122 6402 11114 6361 11090 6324 11053 6299 11010 6290 10655 6290 10649 6291 10820 6121 11010 6121 11050 6113 11088 6089 11113 6052 11122 6009 11122 5812 11114 5771 11090 5733 11053 5708 11010 5700 10962 5700 10962 5698 10962 5698 10932 5653 10776 5497 10776 5268 10780 5272 10871 5310 11114 5310 11176 5247 11176 4992 11168 4992 11168 4892 11176 4892 11176 4884 11276 4884 11276 4892 11719 4892 11781 4829 11781 4774 11743 4682 11673 4612 11636 4596 11644 4560 11644 4323 11643 4321 12109 4321 12109 4384 12146 4474 12215 4543 12305 4580 12358 4580 11864 5075 11781 5075 11781 5054 11719 4992 11276 4992 11276 5247 11339 5310 11572 5310 11572 5367 11521 5417 11491 5463 11487 5480 11480 5516 11480 5700 11443 5700 11402 5707 11365 5731 11339 5768 11331 5812 11331 6009 11338 6049 11362 6087 11399 6112 11443 6121 11797 6121 11838 6113 11875 6089 11900 6052 11909 6009 11909 5812 11902 5771 11877 5733 11841 5708 11797 5700 11760 5700 11760 5574 11770 5564 11865 5565 11955 5527 12024 5459 12051 5394 12310 5394 12354 5502 12437 5585 12545 5630 12663 5630 12771 5585 12854 5502 12899 5394 12899 5277 12854 5169 12771 5086 12663 5041 12546 5041 12438 5085 12355 5168 12310 5276 12310 5394 12051 5394 12062 5368 12062 5272 12678 4656 12709 4611 12719 4557 12719 4545 12805 4580 12903 4580 12993 4543 13062 4474 13099 4384 13099 4287 13062 4197 12993 4128 12903 4090 12807 4090 12804 4087 12799 4079 12796 4076 12805 4080 12903 4080 12993 4043 13062 3974 13099 3884 13099 3787 13062 3697 12995 3629 13062 3629 13145 3595 13145 6526"/>
  <polyline points="12714 1835 12938 2059 13145 2145 13145 3075 13063 3041 12946 3041 12838 3086 12755 3169 12710 3277 12710 3394 12755 3502 12837 3584 12852 3590 12807 3590 12799 3582 12753 3551 12700 3541 12414 3541 12453 3502 12498 3394 12498 3277 12454 3169 12371 3086 12263 3041 12146 3041 12038 3086 11955 3169 11910 3277 11910 3306 11890 3302 11639 3302 11636 3283 11612 3245 11575 3220 11531 3211 10921 3211 10880 3219 10843 3243 10818 3280 10809 3323 10809 3560 10815 3593 9673 3593 9620 3604 9574 3634 9473 3736 9449 3720 9405 3711 8795 3711 8754 3719 8717 3743 8692 3780 8687 3802 8484 3802 8484 3764 8476 3724 8452 3686 8416 3661 8372 3652 8175 3652 8134 3660 8097 3684 8072 3721 8063 3764 8063 4119 8071 4160 8095 4197 8131 4222 8175 4231 8372 4231 8413 4223 8450 4199 8475 4162 8484 4119 8484 4082 8687 4082 8691 4100 8715 4138 8751 4163 8795 4172 9405 4172 9446 4164 9484 4140 9509 4103 9515 4072 9519 4071 9564 4041 9731 3873 10809 3873 10809 4041 10048 4041 9994 4051 9994 4051 9994 4051 9949 4082 9518 4513 9518 4323 9510 4283 9486 4245 9449 4220 9405 4211 8795 4211 8754 4219 8717 4243 8692 4280 8687 4302 8123 4302 8070 4312 8024 4343 7986 4381 7956 4426 7947 4471 7945 4480 7945 4978 7956 5032 7986 5077 8413 5504 8408 5504 8346 5566 8346 6254 8353 6254 8353 6354 8346 6354 8346 6362 8246 6362 8246 6354 7758 6354 7696 6416 7696 6904 7727 6979 6629 6979 6616 6966 7246 6966 7286 6958 7324 6934 7349 6897 7358 6854 7358 5754 7350 5713 7344 5704 7696 5704 7696 6191 7758 6254 8246 6254 8246 5566 8183 5504 7896 5504 7804 5542 7734 5612 7696 5704 7344 5704 7326 5676 7289 5650 7246 5642 6546 5642 6505 5649 6467 5673 6442 5710 6433 5754 6433 6486 6354 6453 6256 6452 6166 6490 6128 6528 5830 6528 5807 6491 5780 6473 5911 6473 5976 6460 6031 6423 6228 6226 6228 6226 6264 6172 6277 6107 6277 6107 6277 5489 6633 5489 6638 5496 6675 5521 6718 5530 7073 5530 7113 5522 7151 5498 7176 5462 7185 5418 7185 5221 7177 5180 7153 5143 7116 5118 7073 5109 6718 5109 6678 5117 6640 5141 6633 5150 6277 5150 6277 4191 6294 4232 6362 4300 6362 4532 6372 4586 6403 4631 6600 4828 6607 4833 6614 4868 6638 4906 6675 4931 6718 4940 7073 4940 7113 4932 7151 4908 7176 4871 7176 4869 7472 4869 7472 4906 7480 4947 7504 4984 7541 5009 7585 5018 7781 5018 7822 5011 7860 4987 7885 4950 7894 4906 7894 4552 7886 4511 7862 4474 7825 4449 7781 4440 7585 4440 7544 4447 7506 4471 7481 4508 7472 4552 7472 4589 7177 4589 7153 4552 7116 4527 7073 4518 6718 4518 6691 4524 6642 4474 6642 4300 6709 4233 6747 4143 6747 4045 6724 3990 7044 3990 7081 4080 7150 4149 7240 4187 7338 4187 7428 4149 7472 4105 7472 4119 7480 4160 7504 4197 7541 4222 7585 4231 7781 4231 7822 4223 7860 4199 7885 4162 7894 4119 7894 3764 7886 3724 7862 3686 7825 3661 7781 3652 7585 3652 7544 3660 7506 3684 7481 3721 7472 3764 7472 3778 7428 3734 7338 3697 7241 3697 7151 3734 7082 3803 7044 3893 7044 3990 6724 3990 6710 3955 6641 3886 6551 3849 6453 3849 6363 3886 6294 3955 6257 4045 6257 4063 6245 4045 6228 4019 6228 4019 5763 3554 5763 3499 5725 3409 5687 3370 5687 2930 5701 2930 5701 2938 5708 2978 5732 3016 5769 3041 5813 3050 6010 3050 6050 3042 6088 3018 6113 2981 6122 2938 6122 2583 6114 2543 6090 2505 6053 2480 6010 2471 5813 2471 5772 2479 5735 2503 5710 2540 5701 2583 5701 2591 5687 2591 5687 2240 5981 1945 7287 1945 7275 1973 7275 2057 7338 2120 7633 2120 7633 2112 7733 2112 7733 2120 7741 2120 7741 2220 7733 2220 7733 2505 7791 2564 7733 2622 7733 2907 7741 2907 7741 3007 7733 3007 7733 3015 7633 3015 7633 3007 7625 3007 7625 2907 7633 2907 7633 2622 7574 2564 7633 2505 7633 2220 7338 2220 7275 2282 7275 2367 7314 2459 7384 2530 7466 2564 7384 2598 7314 2668 7275 2760 7275 2819 7118 2661 7073 2631 7019 2620 6712 2620 6712 2583 6705 2543 6681 2505 6644 2480 6600 2471 6403 2471 6363 2479 6325 2503 6300 2540 6291 2583 6291 2938 6299 2978 6323 3016 6360 3041 6403 3050 6600 3050 6641 3042 6678 3018 6704 2981 6712 2938 6712 2900 6961 2900 7511 3450 7556 3480 7610 3491 7673 3491 7741 3559 7831 3596 7928 3596 8018 3559 8087 3490 8118 3417 8154 3471 8244 3561 8299 3598 8364 3611 8697 3611 8715 3638 8751 3663 8795 3672 9405 3672 9446 3664 9484 3640 9509 3603 9518 3560 9518 3323 9510 3283 9486 3245 9449 3220 9405 3211 8795 3211 8754 3219 8717 3243 8697 3273 8443 3273 8443 3215 8472 3209 8509 3185 8534 3149 8543 3105 8543 2810 8535 2769 8511 2731 8475 2706 8443 2700 8443 2428 8472 2422 8509 2398 8534 2361 8543 2318 8543 2022 8535 1982 8511 1944 8475 1919 8443 1912 8443 1904 8430 1839 8393 1785 8393 1785 8265 1657 8224 1629 12629 1629 12714 1835"/>
  <polyline points="14324 8220 2617 8220 2617 2938 3269 2938 3292 3055 3358 3155 3458 3221 3499 3229 3499 5402 3458 5410 3358 5477 3292 5576 3269 5694 3292 5811 3358 5911 3458 5977 3499 5985 3499 7288 3503 7307 3514 7324 3531 7335 3549 7338 13392 7338 13411 7334 13427 7323 13438 7306 13442 7288 13442 1383 13438 1363 13426 1347 13410 1336 13392 1333 3549 1333 3530 1336 3513 1348 3502 1364 3499 1383 3499 2646 3458 2654 3358 2721 3292 2820 3269 2938 2617 2938 2617 450 14324 450 14324 8220"/>
 </g>
 <g stroke-width="0" fill="#fff">
  <circle cy="6698" cx="6305.5" r="65"/>
 </g>
 <g stroke-width="0" fill="#fff">
  <circle cy="3351.5" cx="7880.3" r="65"/>
 </g>
 <g stroke-width="0" fill="#fff">
  <circle cy="5123.2" cx="4022" r="65"/>
 </g>
 <g stroke-width="0" fill="#fff">
  <circle cy="4532.6" cx="4022" r="65"/>
 </g>
 <g stroke-width="0" fill="#fff">
  <circle cy="3745.2" cx="6502.3" r="65"/>
 </g>
 <g stroke-width="0" fill="#fff">
  <circle cy="1973.6" cx="12408" r="65"/>
 </g>
 <g stroke-width="0" fill="#fff">
  <circle cy="6501.1" cx="7683.4" r="65"/>
 </g>
 <g stroke-width="0" fill="#fff">
  <circle cy="2170.4" cx="4337" r="65"/>
 </g>
 <g stroke-width="0" fill="#fff">
  <circle cy="6304.3" cx="3943.3" r="65"/>
 </g>
 <g stroke-width="0" fill="#fff">
  <circle cy="2170.4" cx="6305.5" r="65"/>
 </g>
 <g stroke-width="0" fill="#fff">
  <circle cy="6698" cx="12408" r="65"/>
 </g>
 <g stroke-width="0" fill="#fff">
  <circle cy="4335.8" cx="2959" r="65"/>
 </g>
 <g stroke-width="0" fill="#fff">
  <circle cy="7879.1" cx="6502.3" r="65"/>
 </g>
 <g stroke-width="0" fill="#fff">
  <circle cy="7879.1" cx="10439" r="65"/>
 </g>
 <g stroke-width="0" fill="#fff">
  <circle cy="4335.8" cx="13983" r="65"/>
 </g>
 <g stroke-width="0" fill="#fff">
  <circle cy="792.48" cx="10439" r="65"/>
 </g>
 <g stroke-width="0" fill="#fff">
  <circle cy="792.48" cx="6502.3" r="65"/>
 </g>
 <g stroke-width="0" fill="#fff">
  <circle cy="1776.7" cx="7880.3" r="65"/>
 </g>
 <g stroke-width="0" fill="#fff">
  <circle cy="3548.4" cx="5518.1" r="65"/>
 </g>
 <g stroke-width="0" fill="#fff">
  <circle cy="3942.1" cx="7289.7" r="65"/>
 </g>
 <g stroke-width="0" fill="#fff">
  <circle cy="4094.1" cx="6502.3" r="65"/>
 </g>
 <g stroke-width="0" fill="#fff">
  <circle cy="3835.8" cx="12855" r="65"/>
 </g>
 <g stroke-width="0" fill="#fff">
  <circle cy="5320" cx="11817" r="65"/>
 </g>
 <g stroke-width="0" fill="#fff">
  <circle cy="6816.1" cx="9848.8" r="65"/>
 </g>
 <g stroke-width="0" fill="#fff">
  <circle cy="4335.8" cx="12355" r="65"/>
 </g>
 <g stroke-width="0" fill="#fff">
  <circle cy="6894.8" cx="9230.1" r="65"/>
 </g>
 <g stroke-width="0" fill="#fff">
  <circle cy="4335.8" cx="12855" r="65"/>
 </g>
 <g stroke-width="0" fill="#fff">
  <circle cy="5335.8" cx="12605" r="194.5"/>
 </g>
 <g stroke-width="0" fill="#fff">
  <circle cy="3335.8" cx="12205" r="194"/>
 </g>
 <g stroke-width="0" fill="#fff">
  <circle cy="3335.8" cx="13005" r="194"/>
 </g>
 <g stroke-linejoin="round" fill-opacity="0" stroke="#fff" stroke-linecap="round" stroke-width="216.54">
  <path d="m4755 3272v118"/>
  <path d="m4755 5241v118"/>
 </g>
 <g stroke-linejoin="round" fill-opacity="0" stroke="#fff" stroke-linecap="round" stroke-width="196.85">
  <path d="m3564 2938h256"/>
  <path d="m3564 5694h256"/>
 </g>
 <g stroke-width="0" fill="#fff">
  <circle cy="1383" cx="13392" r="433.07"/>
 </g>
 <g stroke-width="0" fill="#fff">
  <circle cy="7288.5" cx="13392" r="433.07"/>
 </g>
 <g stroke-width="0" fill="#fff">
  <circle cy="1383" cx="3549.6" r="433.07"/>
 </g>
 <g stroke-width="0" fill="#fff">
  <circle cy="7288.5" cx="3549.6" r="433.07"/>
 </g>
 <g stroke-width="0" fill="#840000">
  <polyline points="12250 2711 12250 2416 12565 2416 12565 2711 12250 2711" fill-rule="evenodd"/>
  <polyline points="12840 2711 12840 2416 13155 2416 13155 2711 12840 2711" fill-rule="evenodd"/>
  <circle cy="4835.8" cx="12855" r="154.5"/>
 </g>
 <g stroke-width="0" fill="#840000">
  <circle cy="4835.8" cx="12355" r="154.5"/>
 </g>
 <g stroke-width="0" fill="#840000">
  <circle cy="4335.8" cx="12855" r="154.5"/>
 </g>
 <g stroke-width="0" fill="#840000">
  <circle cy="4335.8" cx="12355" r="154.5"/>
 </g>
 <g stroke-width="0" fill="#840000">
  <circle cy="3835.8" cx="12855" r="154.5"/>
 </g>
 <g stroke-width="0" fill="#840000">
  <circle cy="3835.8" cx="12355" r="154.5"/>
 </g>
 <g stroke-width="0" fill="#840000">
  <polyline points="9140 3489 8116 3489 8116 3213 9140 3213 9140 3489" fill-rule="evenodd"/>
  <polyline points="9140 3989 8116 3989 8116 3713 9140 3713 9140 3989" fill-rule="evenodd"/>
  <polyline points="9140 4489 8116 4489 8116 4213 9140 4213 9140 4489" fill-rule="evenodd"/>
  <polyline points="9140 4989 8116 4989 8116 4713 9140 4713 9140 4989" fill-rule="evenodd"/>
  <polyline points="9140 5489 8116 5489 8116 5213 9140 5213 9140 5489" fill-rule="evenodd"/>
  <polyline points="11561 6674 10144 6674 10144 6359 11561 6359 11561 6674" fill-rule="evenodd"/>
  <polyline points="9140 6674 8116 6674 8116 6359 9140 6359 9140 6674" fill-rule="evenodd"/>
  <polyline points="9140 2343 8116 2343 8116 2028 9140 2028 9140 2343" fill-rule="evenodd"/>
  <polyline points="11541 2343 10518 2343 10518 2028 11541 2028 11541 2343" fill-rule="evenodd"/>
  <polyline points="11541 5489 10518 5489 10518 5213 11541 5213 11541 5489" fill-rule="evenodd"/>
  <polyline points="11541 4989 10518 4989 10518 4713 11541 4713 11541 4989" fill-rule="evenodd"/>
  <polyline points="11541 4489 10518 4489 10518 4213 11541 4213 11541 4489" fill-rule="evenodd"/>
  <polyline points="11541 3989 10518 3989 10518 3713 11541 3713 11541 3989" fill-rule="evenodd"/>
  <polyline points="11541 3489 10518 3489 10518 3213 11541 3213 11541 3489" fill-rule="evenodd"/>
  <circle cy="4926.3" cx="5518.1" r="154.45"/>
 </g>
 <g stroke-width="0" fill="#840000">
  <circle cy="3548.4" cx="6108.6" r="154.45"/>
 </g>
 <g stroke-width="0" fill="#840000">
  <circle cy="4532.6" cx="6108.6" r="154.45"/>
 </g>
 <g fill-rule="evenodd" stroke-width="0" fill="#840000">
  <polyline points="4671 2121 4671 1825 4986 1825 4986 2121 4671 2121"/>
  <polyline points="5262 2121 5262 1825 5577 1825 5577 2121 5262 2121"/>
  <polyline points="13155 5959 13155 6255 12840 6255 12840 5959 13155 5959"/>
  <polyline points="12565 5959 12565 6255 12250 6255 12250 5959 12565 5959"/>
  <polyline points="5577 6550 5577 6845 5262 6845 5262 6550 5577 6550"/>
  <polyline points="4986 6550 4986 6845 4671 6845 4671 6550 4986 6550"/>
  <polyline points="7535 5162 7831 5162 7831 5477 7535 5477 7535 5162"/>
  <polyline points="7535 5753 7831 5753 7831 6068 7535 6068 7535 5753"/>
  <polyline points="7634 3509 7338 3509 7338 3194 7634 3194 7634 3509"/>
  <polyline points="7634 2918 7338 2918 7338 2603 7634 2603 7634 2918"/>
  <polyline points="6748 5949 7043 5949 7043 6264 6748 6264 6748 5949"/>
  <polyline points="6748 6540 7043 6540 7043 6855 6748 6855 6748 6540"/>
  <polyline points="6807 4447 6984 4447 6984 4679 6807 4679 6807 4447"/>
  <polyline points="6807 5277 6984 5277 6984 5510 6807 5510 6807 5277"/>
  <polyline points="6984 4210 6807 4210 6807 3977 6984 3977 6984 4210"/>
  <polyline points="6984 3379 6807 3379 6807 3147 6984 3147 6984 3379"/>
  <polyline points="4489 3883 4489 3725 5021 3725 5021 3883 4489 3883"/>
  <polyline points="4489 4138 4489 3981 5021 3981 5021 4138 4489 4138"/>
  <polyline points="4489 4394 4489 4237 5021 4237 5021 4394 4489 4394"/>
  <polyline points="4489 4650 4489 4493 5021 4493 5021 4650 4489 4650"/>
  <polyline points="4489 4906 4489 4749 5021 4749 5021 4906 4489 4906"/>
 </g>
 <g stroke-linejoin="round" fill-opacity="0" stroke="#840000" stroke-linecap="round" stroke-width="374.02">
  <path d="m4755 3272v118"/>
  <path d="m4755 5241v118"/>
 </g>
 <g stroke-linejoin="round" fill-opacity="0" stroke="#840000" stroke-linecap="round" stroke-width="393.7">
  <path d="m3584 2938h216"/>
  <path d="m3584 5694h216"/>
 </g>
 <g stroke-width="0" fill="#840000">
  <polyline points="7585 1796 7585 2150 7388 2150 7388 1796 7585 1796" fill-rule="evenodd"/>
  <polyline points="6994 1796 6994 2150 6797 2150 6797 1796 6994 1796" fill-rule="evenodd"/>
  <circle cy="1383" cx="13392" r="688.98"/>
 </g>
 <g stroke-width="0" fill="#840000">
  <circle cy="7288.5" cx="13392" r="688.98"/>
 </g>
 <g stroke-width="0" fill="#840000">
  <circle cy="1383" cx="3549.6" r="688.98"/>
 </g>
 <g stroke-width="0" fill="#840000">
  <circle cy="7288.5" cx="3549.6" r="688.98"/>
 </g>
 <g stroke-width="0" fill="#840000">
  <circle cy="4138.9" cx="5518.1" r="154.45"/>
 </g>
 <g stroke-width="0" fill="#C2C2C2">
  <circle cy="6698" cx="6305.5" r="135"/>
 </g>
 <g stroke-width="0" fill="#C2C2C2">
  <circle cy="3351.5" cx="7880.3" r="135"/>
 </g>
 <g stroke-width="0" fill="#C2C2C2">
  <circle cy="5123.2" cx="4022" r="135"/>
 </g>
 <g stroke-width="0" fill="#C2C2C2">
  <circle cy="4532.6" cx="4022" r="135"/>
 </g>
 <g stroke-width="0" fill="#C2C2C2">
  <circle cy="3745.2" cx="6502.3" r="135"/>
 </g>
 <g stroke-width="0" fill="#C2C2C2">
  <circle cy="1973.6" cx="12408" r="135"/>
 </g>
 <g stroke-width="0" fill="#C2C2C2">
  <circle cy="6501.1" cx="7683.4" r="135"/>
 </g>
 <g stroke-width="0" fill="#C2C2C2">
  <circle cy="2170.4" cx="4337" r="135"/>
 </g>
 <g stroke-width="0" fill="#C2C2C2">
  <circle cy="6304.3" cx="3943.3" r="135"/>
 </g>
 <g stroke-width="0" fill="#C2C2C2">
  <circle cy="2170.4" cx="6305.5" r="135"/>
 </g>
 <g stroke-width="0" fill="#C2C2C2">
  <circle cy="6698" cx="12408" r="135"/>
 </g>
 <g stroke-width="0" fill="#C2C2C2">
  <circle cy="4335.8" cx="2959" r="135"/>
 </g>
 <g stroke-width="0" fill="#C2C2C2">
  <circle cy="7879.1" cx="6502.3" r="135"/>
 </g>
 <g stroke-width="0" fill="#C2C2C2">
  <circle cy="7879.1" cx="10439" r="135"/>
 </g>
 <g stroke-width="0" fill="#C2C2C2">
  <circle cy="4335.8" cx="13983" r="135"/>
 </g>
 <g stroke-width="0" fill="#C2C2C2">
  <circle cy="792.48" cx="10439" r="135"/>
 </g>
 <g stroke-width="0" fill="#C2C2C2">
  <circle cy="792.48" cx="6502.3" r="135"/>
 </g>
 <g stroke-width="0" fill="#C2C2C2">
  <circle cy="1776.7" cx="7880.3" r="135"/>
 </g>
 <g stroke-width="0" fill="#C2C2C2">
  <circle cy="3548.4" cx="5518.1" r="135"/>
 </g>
 <g stroke-width="0" fill="#C2C2C2">
  <circle cy="3942.1" cx="7289.7" r="135"/>
 </g>
 <g stroke-width="0" fill="#C2C2C2">
  <circle cy="4094.1" cx="6502.3" r="135"/>
 </g>
 <g stroke-width="0" fill="#C2C2C2">
  <circle cy="3835.8" cx="12855" r="135"/>
 </g>
 <g stroke-width="0" fill="#C2C2C2">
  <circle cy="5320" cx="11817" r="135"/>
 </g>
 <g stroke-width="0" fill="#C2C2C2">
  <circle cy="6816.1" cx="9848.8" r="135"/>
 </g>
 <g stroke-width="0" fill="#C2C2C2">
  <circle cy="4335.8" cx="12355" r="135"/>
 </g>
 <g stroke-width="0" fill="#C2C2C2">
  <circle cy="6894.8" cx="9230.1" r="135"/>
 </g>
 <g stroke-width="0" fill="#C2C2C2">
  <circle cy="4335.8" cx="12855" r="135"/>
 </g>
 <g stroke-linejoin="round" fill-opacity="0" stroke="#840000" stroke-linecap="round" stroke-width="118.11">
  <path d="m7683 5320v9"/>
  <path d="m7683 5329l-521 521"/>
  <path d="m7162 5850v510"/>
  <path d="m7101 6421h-519"/>
  <path d="m7162 6360l-61 61"/>
  <path d="m6582 6421l-277 276"/>
  <path d="m8628 5351h-914"/>
  <path d="m7714 5351l-31-31"/>
  <path d="m9258 5320h-599"/>
  <path d="m8659 5320l-31 31"/>
  <path d="m8628 3351h630"/>
  <path d="m9258 3351l393 394"/>
  <path d="m9651 3745v1181"/>
  <path d="m9651 4926l-393 394"/>
  <path d="m8628 3351h-748"/>
  <path d="m6896 1973v-295"/>
  <path d="m6896 1678l155-156"/>
  <path d="m7051 1522h4905"/>
  <path d="m12272 1838l135 135"/>
  <path d="m11956 1522l316 316"/>
  <path d="m4022 5083v191"/>
  <path d="m4022 5274l94 95"/>
  <path d="m4116 5369v762"/>
  <path d="m4116 6131l-38 38"/>
  <path d="m4078 6169l-135 135"/>
  <path d="m4755 4572h-694"/>
  <path d="m4061 4572l-39-40"/>
  <path d="m5419 6697h276"/>
  <path d="m5695 6697l275 276"/>
  <path d="m5970 6973h660"/>
  <path d="m6630 6973l266-266"/>
  <path d="m6896 6707v-10"/>
  <path d="m7683 6501l689 689"/>
  <path d="m8372 7190h3543"/>
  <path d="m11915 7190l357-358"/>
  <path d="m12272 6832l135-135"/>
  <path d="m7818 6636l-135-135"/>
  <path d="m12407 6107h57"/>
  <path d="m12417 2564h-10"/>
  <path d="m12464 6107l853-853"/>
  <path d="m13317 5254v-2069"/>
  <path d="m13317 3185l-163-163"/>
  <path d="m13154 3022h-278"/>
  <path d="m12407 2564v265"/>
  <path d="m12407 2829l110 110"/>
  <path d="m12517 2939v733"/>
  <path d="m12517 3672l-8 9"/>
  <path d="m12509 3681l-155 154"/>
  <path d="m7683 6501v-591"/>
  <path d="m12407 6107v590"/>
  <path d="m12407 2564v-591"/>
  <path d="m6502 3745v-1378"/>
  <path d="m6502 2367l-197-197"/>
  <path d="m6502 1973h394"/>
  <path d="m6305 2170l197-197"/>
  <path d="m4632 2465l-296-295"/>
 </g>
 <g stroke-linejoin="round" fill-opacity="0" stroke="#840000" stroke-linecap="round" stroke-width="60">
  <path d="m4632 2465l-99-98"/>
 </g>
 <g stroke-linejoin="round" fill-opacity="0" stroke="#840000" stroke-linecap="round" stroke-width="118.11">
  <path d="m4336 2170l197 197"/>
  <path d="m5419 2465h-787"/>
  <path d="m5419 1973v492"/>
 </g>
 <g stroke-linejoin="round" fill-opacity="0" stroke="#840000" stroke-linecap="round" stroke-width="60">
  <path d="m11045 3835l-16 16"/>
 </g>
 <g stroke-linejoin="round" fill-opacity="0" stroke="#840000" stroke-linecap="round" stroke-width="118.11">
  <path d="m2959 4335v-2362"/>
  <path d="m2959 1973l590-590"/>
  <path d="m10439 7879h-3937"/>
  <path d="m13982 1973v2362"/>
  <path d="m13392 1383l590 590"/>
  <path d="m10439 792h2362"/>
  <path d="m12801 792l591 591"/>
  <path d="m4140 792h2362"/>
  <path d="m3549 1383l591-591"/>
  <path d="m3155 4926v1378"/>
  <path d="m3155 6304l394 393"/>
  <path d="m3549 6697v591"/>
  <path d="m4435 7977h-197"/>
  <path d="m4238 7977l-689-689"/>
  <path d="m4829 7583l-394 394"/>
  <path d="m4829 6697v886"/>
  <path d="m13785 6107l296 295"/>
  <path d="m14081 6402v197"/>
  <path d="m14081 6599l-689 689"/>
  <path d="m13008 6107h777"/>
  <path d="m12998 6107h10"/>
  <path d="m13785 2564h-787"/>
  <path d="m13785 2564v-788"/>
  <path d="m13785 1776l-393-393"/>
  <path d="m4435 694h-197"/>
  <path d="m4238 694l-689 689"/>
  <path d="m4829 1087l-394-393"/>
  <path d="m4829 1973v-886"/>
  <path d="m3155 4926v-3150"/>
  <path d="m3155 1776l394-393"/>
  <path d="m3254 4827l-99 99"/>
  <path d="m4755 4827h-1501"/>
  <path d="m5518 4926h-665"/>
  <path d="m4853 4926l-98-99"/>
 </g>
 <g stroke-linejoin="round" fill-opacity="0" stroke="#840000" stroke-linecap="round" stroke-width="60">
  <path d="m12998 6107h787"/>
 </g>
 <g stroke-linejoin="round" fill-opacity="0" stroke="#840000" stroke-linecap="round" stroke-width="118.11">
  <path d="m11891 4372v-1023"/>
  <path d="m11891 3349l-588-589"/>
  <path d="m11303 2760h-3030"/>
  <path d="m8273 2760l-393-393"/>
  <path d="m7880 2367v-591"/>
  <path d="m12354 4835l-463-463"/>
  <path d="m5518 3548h590"/>
  <path d="m4755 3804h507"/>
  <path d="m5262 3804l256-256"/>
 </g>
 <g stroke-linejoin="round" fill-opacity="0" stroke="#840000" stroke-linecap="round" stroke-width="60">
  <path d="m7486 3351v218"/>
  <path d="m7486 3569l283 282"/>
  <path d="m7769 3851h859"/>
  <path d="m7486 2760v-787"/>
  <path d="m7289 5496l-393 393"/>
  <path d="m6896 5889v218"/>
  <path d="m7289 5246v250"/>
  <path d="m8628 4851h-944"/>
  <path d="m7684 4851l-395 395"/>
  <path d="m7289 4335v-393"/>
  <path d="m7092 4532l197-197"/>
  <path d="m6899 4532h193"/>
  <path d="m6896 4563v-28"/>
  <path d="m6896 4535l3-3"/>
  <path d="m6108 4532h-218"/>
  <path d="m5890 4532l-130-129"/>
  <path d="m5760 4403h-592"/>
  <path d="m5168 4403l-87-87"/>
  <path d="m5081 4316h-326"/>
  <path d="m6108 4532h795"/>
  <path d="m6903 4532l31 31"/>
  <path d="m6502 4094h-940"/>
  <path d="m6934 4094h-432"/>
  <path d="m5562 4094l-44 44"/>
  <path d="m4755 4060h684"/>
  <path d="m5439 4060l79 78"/>
  <path d="m11029 5351h756"/>
  <path d="m11785 5351l32-31"/>
  <path d="m11029 5351h-374"/>
  <path d="m11029 4851h-374"/>
  <path d="m10655 4851l-807 807"/>
  <path d="m9848 5658v1236"/>
  <path d="m9515 6894l147 147"/>
  <path d="m9662 7041h1969"/>
  <path d="m11631 7041l383-383"/>
  <path d="m12014 6697v-39"/>
  <path d="m12014 6658v-624"/>
  <path d="m9230 6894h285"/>
  <path d="m12407 5713h240"/>
  <path d="m12334 5713h73"/>
  <path d="m12407 5713h-9"/>
  <path d="m12320 5699v-64"/>
  <path d="m12320 5635v-368"/>
  <path d="m12398 5713l-78-78"/>
  <path d="m12334 5713l-14-14"/>
  <path d="m12320 5267l-917-916"/>
  <path d="m11403 4351h-374"/>
  <path d="m12647 5713l362-361"/>
  <path d="m13009 5352v-362"/>
  <path d="m13009 4990l-155-155"/>
  <path d="m12014 6034l320-321"/>
 </g>
 <g stroke-linejoin="round" fill-rule="evenodd" stroke="#840000" stroke-linecap="round" stroke-width="100" fill="#840000">
  <polyline points="12457 6057 12465 6057 12465 6157 12457 6157 12457 6442 12520 6505 12615 6505 12706 6467 12777 6396 12794 6356 12797 6358 12840 6367 13145 6367 13145 6526 12940 6610 12715 6835 12629 7041 11829 7041 12037 6833 12067 6827 12113 6796 12143 6751 12154 6697 12154 6485 12200 6505 12295 6505 12357 6442 12357 6157 12349 6157 12349 6057 12357 6057 12357 6049 12457 6049 12457 6057"/>
  <polyline points="4660 1715 4630 1721 4593 1745 4568 1782 4559 1825 4559 2121 4567 2161 4591 2199 4627 2224 4671 2233 4986 2233 5027 2225 5033 2221 5050 2262 5120 2333 5212 2371 5307 2371 5369 2308 5369 2023 5469 2023 5469 2308 5532 2371 5626 2371 5718 2333 5789 2262 5827 2170 5827 2086 6547 2086 6547 2200 6585 2292 6655 2362 6747 2400 6784 2400 6846 2338 6846 2023 6945 2023 6945 2338 7007 2400 7044 2400 7136 2362 7206 2292 7244 2200 7244 2086 7181 2023 6945 2023 6846 2023 6610 2023 6547 2086 5827 2086 5764 2023 5469 2023 5369 2023 5361 2023 5361 1923 5369 1923 5369 1915 5469 1915 5469 1923 5764 1923 5827 1861 5827 1776 5789 1684 5734 1629 6610 1629 6585 1654 6547 1746 6547 1861 6610 1923 6846 1923 6846 1915 6945 1915 6945 1923 7181 1923 7244 1861 7244 1746 7206 1654 7181 1629 7680 1629 7672 1637 7645 1704 7628 1693 7585 1684 7388 1684 7347 1691 7309 1716 7284 1752 7275 1796 7275 2150 7283 2191 7307 2228 7344 2254 7346 2254 7346 2491 7338 2491 7298 2499 7260 2523 7235 2559 7226 2603 7226 2918 7234 2959 7258 2996 7295 3021 7338 3030 7634 3030 7674 3022 7712 2998 7737 2962 7746 2918 7746 2603 7738 2562 7714 2525 7677 2500 7634 2491 7626 2491 7626 2254 7663 2231 7688 2194 7697 2150 7697 1940 7711 1954 7711 2367 7724 2431 7760 2486 8154 2880 8154 2880 8209 2917 8273 2930 8273 2930 11233 2930 11266 2963 11142 2963 11079 3026 11079 3301 11087 3301 11087 3401 11079 3401 11079 3801 11087 3801 11087 3901 11079 3901 11079 3909 10979 3909 10979 3901 10330 3901 10268 3964 10268 4039 10306 4130 10376 4201 10405 4213 10405 4213 10405 4489 10413 4530 10437 4567 10474 4592 10518 4601 11455 4601 11455 4601 10518 4601 10477 4609 10439 4633 10414 4670 10405 4713 10405 4903 9749 5559 9719 5605 9713 5636 9708 5658 9708 6609 9641 6677 9603 6767 9603 6788 9569 6765 9515 6754 9436 6754 9369 6687 9279 6649 9252 6649 9252 6359 9244 6318 9220 6281 9183 6256 9140 6247 8116 6247 8075 6254 8038 6279 8013 6315 8004 6359 8004 6674 8012 6715 8036 6752 8072 6777 8116 6786 9009 6786 8985 6845 8985 6943 9022 7033 9030 7041 7210 7041 7255 6997 7293 6905 7293 6810 7231 6747 6946 6747 6946 6755 6846 6755 6846 6747 6838 6747 6838 6647 6846 6647 6846 6640 6946 6640 6946 6647 7231 6647 7293 6585 7293 6490 7286 6473 7318 6424 7331 6360 7331 6360 7331 6217 7394 6280 7486 6318 7570 6318 7633 6255 7633 5960 7733 5960 7733 6255 7795 6318 7880 6318 7972 6280 8043 6209 8081 6117 8081 6023 8018 5960 7733 5960 7633 5960 7625 5960 7625 5860 7633 5860 7633 5852 7733 5852 7733 5860 8018 5860 8081 5798 8081 5703 8043 5611 7972 5541 7932 5524 7934 5521 7934 5520 8010 5520 8012 5530 8036 5567 8072 5592 8116 5601 9140 5601 9180 5593 9218 5569 9243 5532 9252 5489 9252 5489 9258 5489 9322 5476 9377 5439 9771 5045 9771 5045 9808 4991 9810 4980 9820 4926 9820 4926 9820 3745 9820 3745 9808 3680 9785 3647 9771 3625 9771 3625 9609 3464 10268 3464 10268 3539 10293 3601 10268 3664 10268 3739 10330 3801 10979 3801 10979 3401 10330 3401 10268 3464 9609 3464 9377 3231 9322 3195 9258 3182 9246 3182 9244 3172 9238 3164 10268 3164 10268 3239 10330 3301 10979 3301 10979 3026 10917 2963 10468 2963 10376 3001 10306 3072 10268 3164 9238 3164 9220 3135 9183 3110 9140 3101 8116 3101 8075 3109 8038 3133 8026 3150 8019 3143 7929 3106 7831 3106 7741 3143 7736 3149 7714 3115 7677 3090 7634 3081 7338 3081 7298 3089 7260 3113 7235 3150 7226 3194 7226 3213 7172 3213 7234 3150 7234 3097 7196 3005 7126 2935 7034 2897 7002 2897 6940 2959 6940 3213 6953 3213 6953 3313 6940 3313 6940 3566 7002 3629 7034 3629 7126 3591 7196 3521 7226 3448 7226 3509 7234 3549 7258 3587 7295 3612 7338 3621 7356 3621 7357 3622 7387 3668 7670 3950 7715 3980 7769 3991 8004 3991 8012 4030 8036 4067 8072 4092 8116 4101 9140 4101 9180 4093 9218 4069 9243 4032 9252 3989 9252 3713 9244 3672 9220 3635 9183 3610 9140 3601 8116 3601 8075 3609 8038 3633 8013 3670 8004 3711 7827 3711 7707 3592 7712 3589 7736 3554 7741 3559 7831 3596 7928 3596 8018 3559 8026 3552 8036 3567 8072 3592 8116 3601 9140 3601 9180 3593 9218 3569 9226 3558 9482 3815 9482 4856 9210 5128 9183 5110 9140 5101 8116 5101 8075 5109 8038 5133 8013 5170 8010 5182 7943 5182 7943 5162 7935 5121 7911 5084 7874 5059 7831 5050 7683 5050 7742 4991 8004 4991 8012 5030 8036 5067 8072 5092 8116 5101 9140 5101 9180 5093 9218 5069 9243 5032 9252 4989 9252 4713 9244 4672 9220 4635 9183 4610 9140 4601 8116 4601 8075 4609 8038 4633 8013 4670 8004 4711 7684 4711 7631 4722 7585 4752 7198 5140 7196 5136 7126 5065 7034 5027 7002 5027 6940 5090 6940 5344 6953 5344 6953 5444 6940 5444 6940 5451 6851 5451 6851 5444 6619 5444 6557 5506 6557 5559 6595 5651 6665 5722 6757 5760 6789 5760 6846 5703 6846 5741 6797 5790 6766 5836 6766 5836 6766 5837 6748 5837 6707 5845 6670 5869 6645 5906 6636 5949 6636 6252 6582 6252 6517 6265 6462 6301 6311 6452 6256 6452 6166 6490 6097 6559 6060 6649 6060 6746 6097 6836 6166 6905 6256 6942 6353 6943 6444 6905 6498 6851 6498 6905 6536 6997 6581 7041 5734 7041 5789 6987 5827 6895 5827 6810 5764 6747 5469 6747 5469 6755 5369 6755 5369 6747 5361 6747 5361 6647 5369 6647 5369 6362 5469 6362 5469 6647 5764 6647 5827 6585 5827 6500 5789 6408 5718 6338 5626 6300 5532 6300 5469 6362 5369 6362 5307 6300 5212 6300 5120 6338 5050 6408 5033 6449 5030 6447 4986 6438 4671 6438 4630 6445 4593 6469 4568 6506 4559 6550 4559 6845 4567 6886 4591 6923 4627 6948 4660 6955 4660 7041 4312 7041 4227 6836 4002 6611 3796 6525 3796 6e3 3808 6e3 3926 5977 4025 5911 4092 5811 4115 5694 4092 5576 4025 5477 3926 5410 3808 5387 3796 5387 3796 4996 4426 4996 4445 5009 4489 5018 4553 5018 4545 5024 4480 5120 4458 5234 4458 5366 4480 5480 4545 5576 4641 5640 4755 5663 4868 5640 4965 5576 5029 5480 5052 5366 5052 5234 5051 5228 6557 5228 6557 5281 6619 5344 6851 5344 6851 5090 6789 5027 6757 5027 6665 5065 6595 5136 6557 5228 5051 5228 5029 5120 5012 5095 5313 5095 5368 5150 5465 5190 5570 5190 5667 5150 5742 5076 5782 4979 5782 4873 5742 4776 5668 4702 5570 4661 5465 4661 5368 4702 5313 4757 5247 4757 5271 4700 5271 4673 5208 4611 4805 4611 4805 4629 4705 4629 4705 4611 4302 4611 4254 4658 3796 4658 3796 4443 4239 4443 4239 4470 4302 4532 4705 4532 4705 4514 4805 4514 4805 4532 5114 4532 5168 4543 5702 4543 5791 4631 5836 4661 5879 4670 5884 4682 5958 4756 6055 4797 6160 4797 6258 4756 6332 4682 6336 4672 6695 4672 6695 4679 6702 4720 6727 4757 6763 4782 6807 4791 6984 4791 7025 4783 7062 4759 7087 4723 7096 4679 7096 4671 7146 4661 7191 4631 7388 4434 7419 4389 7429 4335 7429 4213 8004 4213 8004 4489 8012 4530 8036 4567 8072 4592 8116 4601 9140 4601 9180 4593 9218 4569 9243 4532 9252 4489 9252 4213 9244 4172 9220 4135 9183 4110 9140 4101 8116 4101 8075 4109 8038 4133 8013 4170 8004 4213 7429 4213 7429 4148 7497 4081 7534 3991 7534 3893 7497 3803 7428 3734 7338 3697 7241 3697 7151 3734 7082 3803 7047 3887 7028 3874 6984 3865 6807 3865 6766 3873 6729 3897 6704 3934 6701 3946 6641 3886 6551 3849 6453 3849 6363 3886 6295 3954 5707 3954 5668 3914 5570 3874 5465 3874 5406 3898 5512 3793 5566 3793 5656 3756 5695 3717 5903 3717 5958 3772 6055 3812 6160 3812 6258 3772 6332 3698 6373 3601 6373 3496 6332 3398 6310 3375 6557 3375 6557 3429 6595 3521 6665 3591 6757 3629 6789 3629 6851 3566 6851 3313 6619 3313 6557 3375 6310 3375 6258 3324 6161 3283 6056 3283 5959 3324 5903 3379 5695 3379 5657 3340 5567 3303 5469 3303 5379 3340 5310 3409 5273 3499 5273 3554 5192 3635 5083 3635 5064 3622 5021 3613 4957 3613 4965 3607 5029 3511 5052 3397 5052 3265 5029 3152 4993 3097 6557 3097 6557 3150 6619 3213 6851 3213 6851 2959 6789 2897 6757 2897 6665 2935 6595 3005 6557 3097 4993 3097 4965 3055 4868 2991 4755 2968 4641 2991 4545 3055 4480 3152 4458 3265 4458 3397 4480 3511 4545 3607 4553 3613 4489 3613 4448 3621 4411 3645 4386 3681 4377 3725 4377 3883 4385 3923 4390 3931 4386 3937 4377 3981 4377 4138 4385 4179 4390 4187 4386 4193 4377 4237 4377 4269 4347 4281 4277 4351 4239 4443 3796 4443 3796 3245 3808 3245 3926 3221 4025 3155 4092 3055 4115 2938 4092 2820 4025 2721 3926 2654 3808 2631 3796 2631 3796 2145 4001 2060 4226 1836 4312 1629 4660 1629 4660 1715"/>
  <polyline points="12714 1835 12938 2059 13145 2145 13145 2304 12840 2304 12800 2312 12794 2315 12777 2274 12706 2204 12615 2166 12520 2166 12457 2228 12457 2514 12465 2514 12465 2614 12457 2614 12457 2899 12520 2961 12615 2961 12706 2923 12777 2853 12794 2812 12797 2815 12840 2823 13145 2823 13145 3075 13063 3041 12946 3041 12838 3086 12755 3169 12710 3277 12710 3301 12498 3301 12498 3277 12454 3169 12371 3086 12263 3041 12146 3041 12038 3086 11955 3169 11954 3172 11457 2676 12000 2676 12000 2761 12038 2853 12108 2923 12200 2961 12295 2961 12357 2899 12357 2614 12062 2614 12000 2676 11457 2676 11422 2641 11367 2604 11303 2591 8344 2591 8207 2455 9140 2455 9180 2448 9218 2424 9243 2387 9252 2343 9252 2028 10405 2028 10405 2343 10413 2384 10437 2421 10474 2446 10518 2455 11541 2455 11582 2448 11619 2424 11645 2387 11649 2366 12000 2366 12000 2451 12062 2514 12357 2514 12357 2228 12295 2166 12200 2166 12108 2204 12038 2274 12000 2366 11649 2366 11653 2343 11653 2028 11646 1987 11622 1950 11585 1925 11541 1916 10518 1916 10477 1924 10439 1948 10414 1985 10405 2028 9252 2028 9244 1987 9220 1950 9183 1925 9140 1916 8116 1916 8080 1923 8087 1915 8125 1825 8125 1728 8088 1638 8079 1629 12629 1629 12714 1835"/>
  <polyline points="14324 8220 2617 8220 2617 2938 3269 2938 3292 3055 3358 3155 3458 3221 3499 3229 3499 5402 3458 5410 3358 5477 3292 5576 3269 5694 3292 5811 3358 5911 3458 5977 3499 5985 3499 7288 3503 7307 3514 7324 3531 7335 3549 7338 8296 7338 8307 7346 8372 7359 8372 7359 11915 7359 11980 7346 11992 7338 13392 7338 13411 7334 13427 7323 13438 7306 13442 7288 13442 5366 13466 5330 13473 5319 13486 5254 13486 3185 13485 3178 13473 3120 13451 3087 13442 3073 13442 1383 13438 1363 13426 1347 13410 1336 13392 1333 3549 1333 3530 1336 3513 1348 3502 1364 3499 1383 3499 2646 3458 2654 3358 2721 3292 2820 3269 2938 2617 2938 2617 450 14324 450 14324 8220"/>
 </g>
 <g stroke-width="0" fill="#fff">
  <circle cy="6698" cx="6305.5" r="65"/>
 </g>
 <g stroke-width="0" fill="#fff">
  <circle cy="3351.5" cx="7880.3" r="65"/>
 </g>
 <g stroke-width="0" fill="#fff">
  <circle cy="5123.2" cx="4022" r="65"/>
 </g>
 <g stroke-width="0" fill="#fff">
  <circle cy="4532.6" cx="4022" r="65"/>
 </g>
 <g stroke-width="0" fill="#fff">
  <circle cy="3745.2" cx="6502.3" r="65"/>
 </g>
 <g stroke-width="0" fill="#fff">
  <circle cy="1973.6" cx="12408" r="65"/>
 </g>
 <g stroke-width="0" fill="#fff">
  <circle cy="6501.1" cx="7683.4" r="65"/>
 </g>
 <g stroke-width="0" fill="#fff">
  <circle cy="2170.4" cx="4337" r="65"/>
 </g>
 <g stroke-width="0" fill="#fff">
  <circle cy="6304.3" cx="3943.3" r="65"/>
 </g>
 <g stroke-width="0" fill="#fff">
  <circle cy="2170.4" cx="6305.5" r="65"/>
 </g>
 <g stroke-width="0" fill="#fff">
  <circle cy="6698" cx="12408" r="65"/>
 </g>
 <g stroke-width="0" fill="#fff">
  <circle cy="4335.8" cx="2959" r="65"/>
 </g>
 <g stroke-width="0" fill="#fff">
  <circle cy="7879.1" cx="6502.3" r="65"/>
 </g>
 <g stroke-width="0" fill="#fff">
  <circle cy="7879.1" cx="10439" r="65"/>
 </g>
 <g stroke-width="0" fill="#fff">
  <circle cy="4335.8" cx="13983" r="65"/>
 </g>
 <g stroke-width="0" fill="#fff">
  <circle cy="792.48" cx="10439" r="65"/>
 </g>
 <g stroke-width="0" fill="#fff">
  <circle cy="792.48" cx="6502.3" r="65"/>
 </g>
 <g stroke-width="0" fill="#fff">
  <circle cy="1776.7" cx="7880.3" r="65"/>
 </g>
 <g stroke-width="0" fill="#fff">
  <circle cy="3548.4" cx="5518.1" r="65"/>
 </g>
 <g stroke-width="0" fill="#fff">
  <circle cy="3942.1" cx="7289.7" r="65"/>
 </g>
 <g stroke-width="0" fill="#fff">
  <circle cy="4094.1" cx="6502.3" r="65"/>
 </g>
 <g stroke-width="0" fill="#fff">
  <circle cy="3835.8" cx="12855" r="65"/>
 </g>
 <g stroke-width="0" fill="#fff">
  <circle cy="5320" cx="11817" r="65"/>
 </g>
 <g stroke-width="0" fill="#fff">
  <circle cy="6816.1" cx="9848.8" r="65"/>
 </g>
 <g stroke-width="0" fill="#fff">
  <circle cy="4335.8" cx="12355" r="65"/>
 </g>
 <g stroke-width="0" fill="#fff">
  <circle cy="6894.8" cx="9230.1" r="65"/>
 </g>
 <g stroke-width="0" fill="#fff">
  <circle cy="4335.8" cx="12855" r="65"/>
 </g>
 <g stroke-width="0" fill="#fff">
  <circle cy="5335.8" cx="12605" r="194.5"/>
 </g>
 <g stroke-width="0" fill="#fff">
  <circle cy="3335.8" cx="12205" r="194"/>
 </g>
 <g stroke-width="0" fill="#fff">
  <circle cy="3335.8" cx="13005" r="194"/>
 </g>
 <g stroke-linejoin="round" fill-opacity="0" stroke="#fff" stroke-linecap="round" stroke-width="216.54">
  <path d="m4755 3272v118"/>
  <path d="m4755 5241v118"/>
 </g>
 <g stroke-linejoin="round" fill-opacity="0" stroke="#fff" stroke-linecap="round" stroke-width="196.85">
  <path d="m3564 2938h256"/>
  <path d="m3564 5694h256"/>
 </g>
 <g stroke-width="0" fill="#fff">
  <circle cy="1383" cx="13392" r="433.07"/>
 </g>
 <g stroke-width="0" fill="#fff">
  <circle cy="7288.5" cx="13392" r="433.07"/>
 </g>
 <g stroke-width="0" fill="#fff">
  <circle cy="1383" cx="3549.6" r="433.07"/>
 </g>
 <g stroke-width="0" fill="#fff">
  <circle cy="7288.5" cx="3549.6" r="433.07"/>
 </g>
 <g stroke-linejoin="round" fill-opacity="0" stroke="#008484" stroke-linecap="round" stroke-width="59.055">
  <path d="m12565 2327h275"/>
  <path d="m12840 2800h-275"/>
 </g>
 <g stroke-linejoin="round" fill-opacity="0" stroke="#008484" stroke-linecap="round" stroke-width="50">
  <path d="m13354 3310v1845"/>
  <path d="m11854 3310v1845"/>
  <path d="m12889 5620l465-465"/>
  <path d="m12319 5620l-465-465"/>
  <path d="m12320 5620.8a403.05 403.05 0 0 0 570 0"/>
  <path d="m12229 2935h750"/>
  <path d="m13355 3310.8a375 375 0 0 0 -375 -375"/>
  <path d="m12230 2935.8a375 375 0 0 0 -375 375"/>
 </g>
 <g stroke-linejoin="round" fill-opacity="0" stroke="#008484" stroke-linecap="round" stroke-width="59.055">
  <path d="m8096 2028h3465"/>
  <path d="m11561 2028v4646"/>
  <path d="m11561 6674h-3465"/>
  <path d="m8096 6674v-4646"/>
  <path d="m4986 1737h276"/>
  <path d="m5262 2209h-276"/>
  <path d="m12840 6343h-275"/>
  <path d="m12565 5871h275"/>
  <path d="m5262 6934h-276"/>
  <path d="m4986 6461h276"/>
  <path d="m7919 5477v276"/>
  <path d="m7447 5753v-276"/>
  <path d="m7250 3194v-276"/>
  <path d="m7722 2918v276"/>
  <path d="m7132 6264v276"/>
  <path d="m6659 6540v-276"/>
  <path d="m6896 5077v98"/>
  <path d="m6896 4880v-99"/>
  <path d="m6896 4880l137 197"/>
  <path d="m7033 5077h-275"/>
  <path d="m6758 5077l138-197"/>
  <path d="m7033 4880h-275"/>
  <path d="m6581 4466v945"/>
  <path d="m7210 4466v945"/>
  <path d="m6896 3580v-99"/>
  <path d="m6896 3777v98"/>
  <path d="m6896 3777l-138-197"/>
  <path d="m6758 3580h275"/>
  <path d="m7033 3580l-137 197"/>
  <path d="m6758 3777h275"/>
  <path d="m7210 4190v-945"/>
  <path d="m6581 4190v-945"/>
  <path d="m2637 2603v3425"/>
  <path d="m5158 2603v3425"/>
  <path d="m5158 6028h-2521"/>
  <path d="m3121 6028v-3425"/>
  <path d="m2637 2603h2521"/>
  <path d="m6994 1707h394"/>
  <path d="m7388 2239h-394"/>
 </g>
 <g stroke-linejoin="round" fill-opacity="0" stroke="#C2C200" stroke-linecap="round" stroke-width="50">
  <path d="m12368 2057l-11 12-34 11h-23l-33-11-23-23-11-22-11-45v-34l11-45 11-23 23-22 33-11h23l34 11 11 11"/>
  <path d="m12570 1922v158"/>
  <path d="m12514 1832l-56 169h146"/>
 </g>
 <g stroke-linejoin="round" fill-opacity="0" stroke="#008484" stroke-linecap="round" stroke-width="50">
  <path d="m13217 5623v-236h90l23 11 11 12 11 22v34l-11 22-11 12-23 11h-90"/>
  <path d="m13577 5623h-135"/>
  <path d="m13510 5623v-236l-23 34-22 22-23 12"/>
 </g>
 <g stroke-linejoin="round" fill-opacity="0" stroke="#C2C200" stroke-linecap="round" stroke-width="50">
  <path d="m9668 1647v191l12 23 11 11 22 11h45l23-11 11-11 11-23v-191"/>
  <path d="m9905 1669l11-11 22-11h57l22 11 11 11 12 23v22l-12 34-135 135h147"/>
  <path d="m5810 4796h135"/>
  <path d="m5878 5033v-237"/>
  <path d="m6024 5033v-237h90l22 12 11 11 12 22v34l-12 23-11 11-22 11h-90"/>
  <path d="m6361 4875v158"/>
  <path d="m6305 4785l-56 169h146"/>
  <path d="m5219 3419h135"/>
  <path d="m5287 3655v-236"/>
  <path d="m5433 3655v-236h90l23 11 11 11 11 23v33l-11 23-11 11-23 11h-90"/>
  <path d="m5793 3655h-135"/>
  <path d="m5726 3655v-236l-23 33-22 23-23 11"/>
  <path d="m5219 4403h135"/>
  <path d="m5287 4639v-236"/>
  <path d="m5433 4639v-236h90l23 11 11 11 11 23v34l-11 22-11 11-23 12h-90"/>
  <path d="m5647 4403h146l-79 90h34l23 11 11 11 11 23v56l-11 23-11 11-23 11h-67l-23-11-11-11"/>
  <path d="m5085 1467l-12 11-33 11h-23l-34-11-22-22-11-23-12-45v-34l12-45 11-22 22-23 34-11h23l33 11 12 12"/>
  <path d="m5163 1253h146l-78 90h33l23 11 11 12 11 22v56l-11 23-11 11-23 11h-67l-23-11-11-11"/>
  <path d="m12368 6782l-11 11-34 11h-23l-33-11-23-22-11-23-11-45v-34l11-45 11-22 23-23 33-11h23l34 11 11 12"/>
  <path d="m12582 6568h-113l-11 113 11-12 23-11h56l22 11 12 12 11 22v56l-11 23-12 11-22 11h-56l-23-11-11-11"/>
  <path d="m5085 7372l-12 12-33 11h-23l-34-11-22-23-11-22-12-45v-34l12-45 11-23 22-22 34-11h23l33 11 12 11"/>
  <path d="m5287 7159h-45l-23 11-11 11-22 34-12 45v90l12 22 11 12 22 11h45l23-11 11-12 11-22v-56l-11-23-11-11-23-11h-45l-22 11-11 11-12 23"/>
  <path d="m7767 4768l12 12 11 33v23l-11 34-23 22-22 11-45 12h-34l-45-12-23-11-22-22-11-34v-23l11-33 11-12"/>
  <path d="m7790 4656v-45l-11-23-12-11-33-22-45-12h-90l-23 12-11 11-11 22v45l11 23 11 11 23 11h56l22-11 12-11 11-23v-45l-11-22-12-11-22-12"/>
  <path d="m7767 4093l12 12 11 33v23l-11 34-23 22-22 11-45 12h-34l-45-12-23-11-22-22-11-34v-23l11-33 11-12"/>
  <path d="m7790 3868v135"/>
  <path d="m7790 3936h-236l33 22 23 23 11 22"/>
  <path d="m7554 3722v-22l11-23 11-11 23-11 45-12h56l45 12 22 11 12 11 11 23v22l-11 23-12 11-22 11-45 11h-56l-45-11-23-11-11-11-11-23"/>
  <path d="m6389 6456l12 11 11 34v22l-11 34-23 22-22 12-45 11h-34l-45-11-23-12-22-22-11-34v-22l11-34 11-11"/>
  <path d="m6412 6231v135"/>
  <path d="m6412 6298h-236l33 23 23 22 11 23"/>
  <path d="m6412 6006v135"/>
  <path d="m6412 6073h-236l33 23 23 22 11 23"/>
  <path d="m6721 5820v-236h56l34 11 23 23 11 22 11 45v34l-11 45-11 22-23 23-34 11h-56"/>
  <path d="m7081 5820h-135"/>
  <path d="m7014 5820v-236l-23 34-22 22-23 11"/>
  <path d="m6721 3064v-236h56l34 11 23 23 11 22 11 45v34l-11 45-11 22-23 23-34 11h-56"/>
  <path d="m6946 2850l11-11 23-11h56l23 11 11 11 11 23v22l-11 34-135 135h146"/>
  <path d="m3572 2474v-237h90l22 12 11 11 12 22v34l-12 23-11 11-22 11h-90"/>
  <path d="m3797 2260l11-11 22-12h57l22 12 11 11 12 22v23l-12 34-135 135h147"/>
  <path d="m7151 1489l-78-112"/>
  <path d="m7016 1489v-236h90l23 11 11 12 11 22v34l-11 22-11 12-23 11h-90"/>
  <path d="m7286 1354l-22-11-11-11-12-23v-11l12-22 11-12 22-11h45l23 11 11 12 11 22v11l-11 23-11 11-23 11h-45l-22 12-11 11-12 22v45l12 23 11 11 22 11h45l23-11 11-11 11-23v-45l-11-22-11-11-23-12"/>
  <path d="m5810 4009h135"/>
  <path d="m5878 4245v-236"/>
  <path d="m6024 4245v-236h90l22 11 11 12 12 22v34l-12 22-11 12-22 11h-90"/>
  <path d="m6249 4032l11-12 22-11h57l22 11 11 12 12 22v23l-12 33-135 135h147"/>
 </g>
 <g stroke-linejoin="round" fill-opacity="0" stroke="#C2C200" stroke-linecap="round" stroke-width="3.937">
  <circle cy="1383" cx="3549.6" r="656.17"/>
  <path d="m2565 1383h1968"/>
  <path d="m3549 398v1969"/>
  <path d="m2565 398v7874"/>
  <path d="m14376 398h-11811"/>
  <path d="m14376 8272v-7874"/>
  <path d="m2565 8272h11811"/>
 </g>
</svg>
